<svg xmlns="http://www.w3.org/2000/svg" xmlns:xlink="http://www.w3.org/1999/xlink" width="200" zoomAndPan="magnify" viewBox="40 150 300 80" height="80" preserveAspectRatio="xMidYMid meet" version="1.0"><defs><g/><clipPath id="3a2b538caa"><path d="M 50 155.167969 L 114 155.167969 L 114 219.667969 L 50 219.667969 Z M 50 155.167969 " clip-rule="nonzero"/></clipPath></defs><g clip-path="url(#3a2b538caa)"><path fill="#000ffe" d="M 79.75 155.765625 C 75.972656 155.960938 72.253906 156.910156 68.472656 158.648438 C 66.953125 159.347656 66.035156 159.867188 64.40625 160.941406 C 61.253906 163.023438 58.691406 165.394531 56.648438 168.109375 C 55.394531 169.777344 53.964844 172.140625 52.941406 174.230469 C 51.804688 176.554688 51.09375 178.824219 50.601562 181.710938 C 50.34375 183.210938 50.167969 184.753906 50.117188 185.949219 L 50.089844 186.597656 L 55.800781 186.570312 C 58.9375 186.554688 63.929688 186.53125 66.890625 186.515625 C 69.851562 186.5 72.285156 186.476562 72.296875 186.464844 C 72.3125 186.449219 71.925781 185.71875 71.445312 184.839844 C 70.816406 183.699219 70.191406 182.558594 69.570312 181.417969 L 68.574219 179.597656 L 66.429688 179.625 C 65.25 179.640625 63.035156 179.667969 61.507812 179.6875 C 59.980469 179.703125 58.726562 179.714844 58.714844 179.703125 C 58.707031 179.695312 58.730469 179.578125 58.769531 179.441406 C 59.464844 176.9375 60.800781 174.488281 62.679688 172.289062 C 63.316406 171.539062 64.871094 170.019531 65.710938 169.316406 C 66.125 168.972656 66.492188 168.675781 66.527344 168.660156 C 66.574219 168.632812 67.210938 169.65625 69.667969 173.710938 C 71.367188 176.507812 73.136719 179.421875 73.601562 180.191406 L 74.453125 181.59375 L 74.742188 181.246094 C 75.867188 179.898438 77.292969 178.980469 78.910156 178.5625 C 79.339844 178.449219 80.199219 178.296875 80.40625 178.296875 C 80.683594 178.296875 80.679688 178.273438 80.320312 177.660156 C 79.972656 177.0625 77.882812 173.457031 76.296875 170.722656 C 75.785156 169.835938 75.273438 168.953125 75.15625 168.757812 C 74.90625 168.332031 73.730469 166.304688 73.324219 165.59375 C 73.164062 165.316406 73.03125 165.082031 73.03125 165.070312 C 73.03125 165.035156 74.269531 164.652344 74.957031 164.472656 C 77.863281 163.722656 80.851562 163.523438 84.179688 163.859375 C 84.988281 163.941406 86.253906 164.121094 86.367188 164.167969 C 86.441406 164.199219 86.5625 163.945312 83.75 169.640625 C 82.917969 171.328125 82.238281 172.714844 82.238281 172.722656 C 82.238281 172.746094 86.328125 178.082031 86.355469 178.089844 C 86.371094 178.09375 86.570312 177.726562 86.804688 177.277344 L 87.976562 174.984375 C 88.390625 174.179688 88.976562 173.035156 89.277344 172.445312 C 89.578125 171.859375 90.023438 170.984375 90.269531 170.503906 C 90.515625 170.023438 90.980469 169.113281 91.300781 168.480469 C 91.621094 167.847656 92.050781 167.007812 92.253906 166.613281 C 92.453125 166.222656 92.882812 165.382812 93.207031 164.75 C 93.527344 164.117188 93.964844 163.261719 94.179688 162.847656 L 95.367188 160.53125 C 95.804688 159.675781 96.160156 158.949219 96.148438 158.925781 C 96.125 158.863281 94.671875 158.140625 93.980469 157.847656 C 91.230469 156.675781 88.445312 156.050781 84.855469 155.800781 C 84.0625 155.746094 80.585938 155.722656 79.75 155.765625 M 98.964844 160.753906 C 98.957031 160.769531 98.640625 161.363281 98.261719 162.074219 C 97.820312 162.90625 97.378906 163.738281 96.933594 164.570312 C 95.847656 166.609375 94.765625 168.644531 93.679688 170.679688 C 93.316406 171.367188 92.941406 172.074219 92.847656 172.25 C 92.570312 172.769531 92.292969 173.292969 92.015625 173.816406 C 91.648438 174.503906 91.210938 175.324219 91.042969 175.640625 C 90.875 175.957031 90.4375 176.777344 90.070312 177.464844 C 89.707031 178.152344 89.339844 178.839844 89.257812 178.992188 C 89.132812 179.226562 89.007812 179.460938 88.882812 179.695312 L 88.65625 180.121094 L 88.773438 180.121094 C 88.835938 180.121094 90.390625 180.167969 92.230469 180.222656 C 94.070312 180.277344 95.582031 180.320312 95.585938 180.3125 C 95.59375 180.304688 95.722656 180.097656 95.871094 179.84375 C 96.84375 178.234375 98.59375 175.351562 98.816406 174.984375 C 98.964844 174.746094 99.332031 174.144531 99.632812 173.648438 C 99.933594 173.148438 100.191406 172.746094 100.210938 172.746094 C 100.304688 172.746094 101.3125 173.9375 101.851562 174.6875 C 103.476562 176.9375 104.566406 179.625 105.171875 182.859375 C 105.257812 183.335938 105.445312 184.539062 105.433594 184.550781 C 105.390625 184.59375 101.683594 184.605469 99.710938 184.570312 C 93.925781 184.472656 91.359375 184.4375 91.335938 184.457031 C 91.324219 184.46875 91.398438 184.707031 91.5 184.988281 C 91.933594 186.179688 92.128906 187.242188 92.125 188.355469 C 92.121094 189.457031 91.941406 190.308594 91.492188 191.347656 C 91.46875 191.394531 92.445312 191.398438 98.496094 191.378906 C 104.480469 191.355469 105.523438 191.363281 105.523438 191.410156 C 105.523438 191.515625 105.320312 192.644531 105.21875 193.09375 C 104.472656 196.476562 102.6875 200.109375 100.175781 203.359375 L 99.921875 203.691406 L 99.691406 203.316406 C 99.3125 202.703125 98.75 201.71875 98.027344 200.394531 C 96.742188 198.054688 96.242188 197.160156 95.792969 196.40625 L 95.34375 195.652344 L 95.027344 195.660156 C 93.371094 195.703125 88.519531 195.847656 88.511719 195.855469 C 88.496094 195.867188 88.589844 196.03125 90.359375 199.144531 C 93.390625 204.472656 94.234375 205.957031 95.527344 208.230469 C 98.832031 214.046875 98.945312 214.238281 98.980469 214.238281 C 99.015625 214.238281 99.976562 213.597656 100.484375 213.230469 C 102.007812 212.132812 103.34375 210.980469 104.710938 209.59375 C 106.40625 207.867188 107.71875 206.175781 108.949219 204.113281 C 111.445312 199.933594 112.921875 195.585938 113.453125 190.835938 C 113.527344 190.179688 113.558594 189.78125 113.65625 188.367188 C 113.707031 187.609375 113.707031 185.984375 113.652344 185.179688 C 113.332031 180.1875 111.632812 175.179688 108.617188 170.324219 C 106.519531 166.949219 104.121094 164.433594 100.484375 161.789062 C 99.421875 161.015625 98.984375 160.71875 98.964844 160.753906 M 50.183594 189.570312 C 50.183594 189.691406 50.398438 191.359375 50.503906 192.0625 C 51.277344 197.167969 52.453125 200.535156 54.632812 203.851562 C 55.785156 205.605469 57.042969 207.292969 58.253906 208.707031 C 58.785156 209.328125 60.484375 211.050781 61.144531 211.636719 C 63.21875 213.484375 64.832031 214.507812 67.835938 215.894531 C 72.03125 217.828125 75.503906 218.820312 79.378906 219.195312 C 81.429688 219.394531 83.894531 219.363281 85.898438 219.117188 C 88.675781 218.773438 91.429688 218.015625 94.117188 216.851562 C 94.933594 216.496094 96.519531 215.707031 96.542969 215.644531 C 96.554688 215.617188 96.398438 215.292969 96.199219 214.925781 C 95.261719 213.21875 93.222656 209.5625 91.003906 205.613281 C 89.558594 203.042969 88.125 200.464844 86.699219 197.882812 C 86.488281 197.496094 86.300781 197.171875 86.285156 197.160156 C 86.269531 197.152344 86.066406 197.425781 85.835938 197.769531 C 85.605469 198.109375 85.019531 198.960938 84.53125 199.660156 C 83.585938 201.007812 82.773438 202.199219 82.652344 202.402344 L 82.582031 202.527344 L 84.160156 205.578125 C 85.027344 207.253906 85.949219 209.027344 86.203125 209.519531 C 86.460938 210.011719 86.734375 210.539062 86.8125 210.695312 L 86.953125 210.980469 L 86.132812 211.179688 C 84.199219 211.652344 82.898438 211.804688 81.203125 211.765625 C 79.460938 211.726562 78.074219 211.464844 76.398438 210.851562 C 75.523438 210.535156 74.101562 209.871094 73.476562 209.492188 L 73.347656 209.410156 L 73.988281 208.34375 C 74.761719 207.0625 75.183594 206.378906 76.628906 204.097656 C 77.800781 202.238281 78.410156 201.257812 79.132812 200.058594 C 79.609375 199.265625 80.515625 197.703125 80.550781 197.605469 C 80.570312 197.5625 80.503906 197.539062 80.265625 197.5 C 78.140625 197.164062 76.183594 196.027344 74.769531 194.316406 C 74.59375 194.101562 74.441406 193.929688 74.4375 193.929688 C 74.421875 193.929688 74.261719 194.207031 73.804688 195.019531 C 73.332031 195.867188 72.101562 197.96875 71.011719 199.800781 C 69.3125 202.652344 68.988281 203.199219 68.292969 204.421875 C 67.917969 205.074219 67.527344 205.769531 67.417969 205.957031 C 67.3125 206.148438 67.214844 206.304688 67.203125 206.304688 C 67.160156 206.304688 66.328125 205.636719 65.851562 205.21875 C 63.308594 202.988281 60.933594 199.871094 59.269531 196.585938 C 58.890625 195.839844 58.472656 194.949219 58.472656 194.890625 C 58.472656 194.847656 62.378906 194.914062 63.492188 194.976562 C 65.988281 195.109375 68.269531 195.160156 68.753906 195.09375 C 68.902344 195.074219 68.941406 195.050781 69.011719 194.925781 C 69.085938 194.789062 69.511719 194.054688 71.304688 190.960938 C 71.710938 190.253906 72.054688 189.65625 72.066406 189.625 C 72.082031 189.585938 70.625 189.570312 64.179688 189.550781 C 59.828125 189.535156 54.902344 189.511719 53.226562 189.5 L 50.183594 189.472656 Z M 50.183594 189.570312 " fill-opacity="1" fill-rule="evenodd"/></g><g fill="#004aad" fill-opacity="1"><g transform="translate(130.089841, 207.749986)"><g><path d="M 3.46875 0 L 3.46875 -37.296875 L 23.625 -37.296875 L 23.625 -31.96875 L 9.40625 -31.96875 L 9.40625 -22.171875 L 19.65625 -22.171875 L 19.65625 -17.140625 L 9.40625 -17.140625 L 9.40625 -5.3125 L 23.625 -5.3125 L 23.625 0 Z M 3.46875 0 "/></g></g></g><g fill="#004aad" fill-opacity="1"><g transform="translate(155.566287, 207.749986)"><g><path d="M 21.28125 0 L 12.828125 -16.625 L 9.40625 -12.15625 L 9.40625 0 L 3.46875 0 L 3.46875 -37.296875 L 9.40625 -37.296875 L 9.40625 -19.828125 L 21.390625 -37.296875 L 27.890625 -37.296875 L 16.625 -21.28125 L 27.828125 0 Z M 21.28125 0 "/></g></g></g><g fill="#004aad" fill-opacity="1"><g transform="translate(183.394356, 207.749986)"><g><path d="M 18.921875 9.1875 C 18.921875 10.675781 18.40625 11.925781 17.375 12.9375 C 16.351562 13.945312 15.003906 14.453125 13.328125 14.453125 C 12.765625 14.453125 12.269531 14.382812 11.84375 14.25 C 11.414062 14.125 11.109375 13.984375 10.921875 13.828125 L 10.921875 11.765625 L 12.203125 11.765625 C 13.023438 11.765625 13.671875 11.59375 14.140625 11.25 C 14.609375 10.914062 14.84375 10.414062 14.84375 9.75 L 14.84375 8.015625 C 14.84375 7.296875 14.609375 6.738281 14.140625 6.34375 C 13.671875 5.957031 13.023438 5.765625 12.203125 5.765625 C 11.160156 5.765625 10.132812 6.34375 9.125 7.5 L 7.109375 6.109375 L 11.09375 0.734375 C 8.289062 0.242188 6.066406 -0.929688 4.421875 -2.796875 C 2.773438 -4.660156 1.953125 -6.898438 1.953125 -9.515625 L 1.953125 -11.3125 L 7.84375 -11.3125 L 7.84375 -10.703125 C 7.84375 -6.296875 9.859375 -4.09375 13.890625 -4.09375 C 15.796875 -4.09375 17.222656 -4.59375 18.171875 -5.59375 C 19.117188 -6.601562 19.59375 -7.894531 19.59375 -9.46875 C 19.59375 -10.25 19.476562 -10.945312 19.25 -11.5625 C 19.03125 -12.175781 18.660156 -12.765625 18.140625 -13.328125 C 17.617188 -13.890625 16.890625 -14.445312 15.953125 -15 C 15.023438 -15.5625 13.867188 -16.160156 12.484375 -16.796875 C 11.253906 -17.359375 10.03125 -17.984375 8.8125 -18.671875 C 7.601562 -19.367188 6.53125 -20.15625 5.59375 -21.03125 C 4.664062 -21.90625 3.910156 -22.910156 3.328125 -24.046875 C 2.753906 -25.191406 2.46875 -26.507812 2.46875 -28 C 2.46875 -29.382812 2.71875 -30.703125 3.21875 -31.953125 C 3.71875 -33.203125 4.441406 -34.28125 5.390625 -35.1875 C 6.347656 -36.101562 7.515625 -36.832031 8.890625 -37.375 C 10.273438 -37.914062 11.863281 -38.1875 13.65625 -38.1875 C 15.414062 -38.1875 17.015625 -37.925781 18.453125 -37.40625 C 19.890625 -36.882812 21.109375 -36.15625 22.109375 -35.21875 C 23.117188 -34.289062 23.894531 -33.179688 24.4375 -31.890625 C 24.976562 -30.597656 25.25 -29.207031 25.25 -27.71875 L 25.25 -26.265625 L 19.546875 -26.265625 L 19.546875 -26.875 C 19.546875 -27.738281 19.429688 -28.550781 19.203125 -29.3125 C 18.984375 -30.082031 18.628906 -30.753906 18.140625 -31.328125 C 17.660156 -31.910156 17.035156 -32.367188 16.265625 -32.703125 C 15.503906 -33.035156 14.582031 -33.203125 13.5 -33.203125 C 11.78125 -33.203125 10.5 -32.753906 9.65625 -31.859375 C 8.820312 -30.960938 8.40625 -29.863281 8.40625 -28.5625 C 8.40625 -27.8125 8.515625 -27.144531 8.734375 -26.5625 C 8.960938 -25.988281 9.375 -25.429688 9.96875 -24.890625 C 10.5625 -24.347656 11.367188 -23.785156 12.390625 -23.203125 C 13.421875 -22.628906 14.742188 -21.953125 16.359375 -21.171875 C 17.992188 -20.378906 19.390625 -19.601562 20.546875 -18.84375 C 21.703125 -18.082031 22.65625 -17.257812 23.40625 -16.375 C 24.15625 -15.5 24.707031 -14.554688 25.0625 -13.546875 C 25.414062 -12.546875 25.59375 -11.410156 25.59375 -10.140625 C 25.59375 -8.609375 25.3125 -7.171875 24.75 -5.828125 C 24.1875 -4.484375 23.398438 -3.316406 22.390625 -2.328125 C 21.390625 -1.335938 20.175781 -0.554688 18.75 0.015625 C 17.332031 0.597656 15.769531 0.910156 14.0625 0.953125 L 11.59375 4.203125 C 11.894531 4.015625 12.257812 3.890625 12.6875 3.828125 C 13.113281 3.773438 13.515625 3.75 13.890625 3.75 C 15.566406 3.75 16.820312 4.257812 17.65625 5.28125 C 18.5 6.3125 18.921875 7.613281 18.921875 9.1875 Z M 18.921875 9.1875 "/></g></g></g><g fill="#004aad" fill-opacity="1"><g transform="translate(210.942515, 207.749986)"><g><path d="M 3.46875 0 L 3.46875 -37.296875 L 9.40625 -37.296875 L 9.40625 0 Z M 4.03125 -41.15625 L 4.03125 -46.359375 L 8.78125 -46.359375 L 8.78125 -41.15625 Z M 4.03125 -41.15625 "/></g></g></g><g fill="#004aad" fill-opacity="1"><g transform="translate(223.820722, 207.749986)"><g><path d="M 26.984375 -11.140625 C 26.984375 -9.421875 26.75 -7.820312 26.28125 -6.34375 C 25.820312 -4.875 25.097656 -3.597656 24.109375 -2.515625 C 23.117188 -1.429688 21.867188 -0.582031 20.359375 0.03125 C 18.847656 0.644531 17.046875 0.953125 14.953125 0.953125 C 12.859375 0.953125 11.054688 0.644531 9.546875 0.03125 C 8.035156 -0.582031 6.785156 -1.429688 5.796875 -2.515625 C 4.804688 -3.597656 4.078125 -4.875 3.609375 -6.34375 C 3.140625 -7.820312 2.90625 -9.421875 2.90625 -11.140625 L 2.90625 -26.15625 C 2.90625 -27.875 3.140625 -29.457031 3.609375 -30.90625 C 4.078125 -32.363281 4.804688 -33.632812 5.796875 -34.71875 C 6.785156 -35.800781 8.035156 -36.648438 9.546875 -37.265625 C 11.054688 -37.878906 12.859375 -38.1875 14.953125 -38.1875 C 17.046875 -38.1875 18.847656 -37.878906 20.359375 -37.265625 C 21.867188 -36.648438 23.117188 -35.800781 24.109375 -34.71875 C 25.097656 -33.632812 25.820312 -32.363281 26.28125 -30.90625 C 26.75 -29.457031 26.984375 -27.875 26.984375 -26.15625 Z M 21.0625 -26.546875 C 21.0625 -28.453125 20.570312 -30.007812 19.59375 -31.21875 C 18.625 -32.4375 17.078125 -33.046875 14.953125 -33.046875 C 12.859375 -33.046875 11.328125 -32.4375 10.359375 -31.21875 C 9.390625 -30.007812 8.90625 -28.453125 8.90625 -26.546875 L 8.90625 -10.75 C 8.90625 -8.84375 9.390625 -7.28125 10.359375 -6.0625 C 11.328125 -4.851562 12.859375 -4.25 14.953125 -4.25 C 17.078125 -4.25 18.625 -4.851562 19.59375 -6.0625 C 20.570312 -7.28125 21.0625 -8.84375 21.0625 -10.75 Z M 21.0625 -26.546875 "/></g></g></g><g fill="#004aad" fill-opacity="1"><g transform="translate(253.72055, 207.749986)"><g><path d="M 23.578125 0 L 22.625 -3.140625 C 21.875 -1.796875 20.769531 -0.773438 19.3125 -0.078125 C 17.863281 0.609375 16.148438 0.953125 14.171875 0.953125 C 12.191406 0.953125 10.488281 0.632812 9.0625 0 C 7.644531 -0.632812 6.476562 -1.472656 5.5625 -2.515625 C 4.65625 -3.566406 3.984375 -4.78125 3.546875 -6.15625 C 3.117188 -7.539062 2.90625 -9 2.90625 -10.53125 L 2.90625 -26.765625 C 2.90625 -28.265625 3.140625 -29.703125 3.609375 -31.078125 C 4.078125 -32.460938 4.804688 -33.6875 5.796875 -34.75 C 6.785156 -35.8125 8.035156 -36.648438 9.546875 -37.265625 C 11.054688 -37.878906 12.859375 -38.1875 14.953125 -38.1875 C 17.046875 -38.1875 18.828125 -37.90625 20.296875 -37.34375 C 21.773438 -36.789062 22.96875 -36.007812 23.875 -35 C 24.789062 -33.988281 25.453125 -32.78125 25.859375 -31.375 C 26.273438 -29.976562 26.484375 -28.441406 26.484375 -26.765625 L 26.484375 -25.984375 L 20.78125 -25.984375 L 20.78125 -27.328125 C 20.78125 -28.078125 20.675781 -28.796875 20.46875 -29.484375 C 20.257812 -30.171875 19.921875 -30.773438 19.453125 -31.296875 C 18.992188 -31.828125 18.390625 -32.25 17.640625 -32.5625 C 16.890625 -32.882812 15.992188 -33.046875 14.953125 -33.046875 C 13.910156 -33.046875 13.003906 -32.875 12.234375 -32.53125 C 11.472656 -32.195312 10.835938 -31.757812 10.328125 -31.21875 C 9.828125 -30.675781 9.453125 -30.050781 9.203125 -29.34375 C 8.960938 -28.632812 8.84375 -27.90625 8.84375 -27.15625 L 8.84375 -10.078125 C 8.84375 -9.328125 8.960938 -8.609375 9.203125 -7.921875 C 9.453125 -7.234375 9.828125 -6.617188 10.328125 -6.078125 C 10.835938 -5.535156 11.472656 -5.09375 12.234375 -4.75 C 13.003906 -4.414062 13.910156 -4.25 14.953125 -4.25 C 15.992188 -4.25 16.894531 -4.414062 17.65625 -4.75 C 18.425781 -5.09375 19.0625 -5.535156 19.5625 -6.078125 C 20.070312 -6.617188 20.445312 -7.234375 20.6875 -7.921875 C 20.9375 -8.609375 21.0625 -9.328125 21.0625 -10.078125 L 21.0625 -14.5 L 15.125 -14.5 L 15.125 -19.484375 L 26.65625 -19.484375 L 26.65625 0 Z M 21.953125 -45.578125 C 21.953125 -44.160156 21.28125 -42.984375 19.9375 -42.046875 C 18.59375 -41.117188 16.894531 -40.65625 14.84375 -40.65625 C 12.789062 -40.65625 11.101562 -41.117188 9.78125 -42.046875 C 8.457031 -42.984375 7.796875 -44.160156 7.796875 -45.578125 C 7.796875 -46.097656 7.847656 -46.546875 7.953125 -46.921875 C 8.066406 -47.296875 8.21875 -47.671875 8.40625 -48.046875 L 11.3125 -48.046875 L 11.3125 -46.921875 C 11.3125 -46.066406 11.582031 -45.335938 12.125 -44.734375 C 12.664062 -44.140625 13.570312 -43.84375 14.84375 -43.84375 C 16.15625 -43.84375 17.082031 -44.140625 17.625 -44.734375 C 18.164062 -45.335938 18.4375 -46.066406 18.4375 -46.921875 L 18.4375 -48.046875 L 21.34375 -48.046875 C 21.53125 -47.671875 21.675781 -47.296875 21.78125 -46.921875 C 21.894531 -46.546875 21.953125 -46.097656 21.953125 -45.578125 Z M 21.953125 -45.578125 "/></g></g></g><g fill="#004aad" fill-opacity="1"><g transform="translate(283.004457, 207.749986)"><g><path d="M 3.46875 0 L 3.46875 -37.296875 L 9.40625 -37.296875 L 9.40625 -5.3125 L 23.296875 -5.3125 L 23.296875 0 Z M 3.46875 0 "/></g></g></g><g fill="#004aad" fill-opacity="1"><g transform="translate(306.577145, 207.749986)"><g><path d="M 27.5 -9.859375 C 27.5 -8.140625 27.207031 -6.609375 26.625 -5.265625 C 26.050781 -3.921875 25.226562 -2.789062 24.15625 -1.875 C 23.09375 -0.957031 21.820312 -0.257812 20.34375 0.21875 C 18.875 0.707031 17.242188 0.953125 15.453125 0.953125 C 13.703125 0.953125 12.085938 0.707031 10.609375 0.21875 C 9.140625 -0.257812 7.867188 -0.957031 6.796875 -1.875 C 5.734375 -2.789062 4.90625 -3.921875 4.3125 -5.265625 C 3.71875 -6.609375 3.421875 -8.140625 3.421875 -9.859375 L 3.421875 -37.296875 L 9.40625 -37.296875 L 9.40625 -9.96875 C 9.40625 -8.0625 9.890625 -6.601562 10.859375 -5.59375 C 11.828125 -4.59375 13.359375 -4.09375 15.453125 -4.09375 C 17.578125 -4.09375 19.125 -4.59375 20.09375 -5.59375 C 21.070312 -6.601562 21.5625 -8.0625 21.5625 -9.96875 L 21.5625 -37.296875 L 27.5 -37.296875 Z M 27.5 -9.859375 "/></g></g></g></svg>