<svg xmlns="http://www.w3.org/2000/svg" xmlns:xlink="http://www.w3.org/1999/xlink" width="120" zoomAndPan="magnify" viewBox="0 0 90 89.999999" height="120" preserveAspectRatio="xMidYMid meet" version="1.2"><defs><clipPath id="51e7fe4fb5"><path d="M 6.140625 54.308594 L 11.320312 54.308594 L 11.320312 58.183594 L 6.140625 58.183594 Z M 6.140625 54.308594 "/></clipPath><clipPath id="e98438bf07"><path d="M 7.433594 54.308594 L 11.308594 54.308594 L 10.015625 58.183594 L 6.140625 58.183594 Z M 7.433594 54.308594 "/></clipPath><clipPath id="5aa9ed7ac1"><path d="M 19.730469 22 L 70 22 L 70 39 L 19.730469 39 Z M 19.730469 22 "/></clipPath><clipPath id="620b31c380"><path d="M 42 0.898438 L 45 0.898438 L 45 36 L 42 36 Z M 42 0.898438 "/></clipPath><clipPath id="aae3c6df38"><path d="M 44 0.898438 L 47 0.898438 L 47 36 L 44 36 Z M 44 0.898438 "/></clipPath><clipPath id="89bacad256"><path d="M 44 38 L 47 38 L 47 59.21875 L 44 59.21875 Z M 44 38 "/></clipPath><clipPath id="8b773a465e"><path d="M 42 38 L 45 38 L 45 59.21875 L 42 59.21875 Z M 42 38 "/></clipPath></defs><g id="8db53970e7"><g style="fill:#000089;fill-opacity:1;"><g transform="translate(3.137509, 87.988231)"><path style="stroke:none" d="M 6.714844 0 L 6.714844 -27.8125 L 3.253906 -27.8125 L 3.253906 0 Z M 6.714844 0 "/></g></g><g style="fill:#000089;fill-opacity:1;"><g transform="translate(13.102755, 87.988231)"><path style="stroke:none" d="M 19.640625 0 L 19.640625 -3.085938 L 6.714844 -3.085938 L 6.714844 -27.8125 L 3.253906 -27.8125 L 3.253906 0 Z M 19.640625 0 "/></g></g><g style="fill:#000089;fill-opacity:1;"><g transform="translate(34.367503, 87.988231)"><path style="stroke:none" d="M 24.351562 0 L 11.757812 -14.59375 L 23.351562 -27.8125 L 19.015625 -27.8125 L 6.714844 -13.425781 L 6.714844 -27.8125 L 3.253906 -27.8125 L 3.253906 0 L 6.714844 0 L 6.714844 -9.339844 L 9.507812 -12.507812 L 20.058594 0 Z M 24.351562 0 "/></g></g><g style="fill:#000089;fill-opacity:1;"><g transform="translate(59.426555, 87.988231)"><path style="stroke:none" d="M 27.0625 0 L 15.84375 -27.8125 L 11.550781 -27.8125 L 0.375 0 L 4.210938 0 L 6.671875 -6.171875 L 20.765625 -6.171875 L 23.226562 0 Z M 19.722656 -9.257812 L 7.671875 -9.257812 L 13.71875 -24.726562 Z M 19.722656 -9.257812 "/></g></g><g clip-rule="nonzero" clip-path="url(#51e7fe4fb5)"><g clip-rule="nonzero" clip-path="url(#e98438bf07)"><path style=" stroke:none;fill-rule:nonzero;fill:#228b22;fill-opacity:1;" d="M 6.140625 54.308594 L 11.304688 54.308594 L 11.304688 58.183594 L 6.140625 58.183594 Z M 6.140625 54.308594 "/></g></g><g clip-rule="nonzero" clip-path="url(#5aa9ed7ac1)"><path style=" stroke:none;fill-rule:nonzero;fill:#228b22;fill-opacity:1;" d="M 43.734375 37.6875 C 31.542969 36.316406 21.671875 32.535156 19.734375 28.765625 C 22.472656 31.875 30.820312 34.828125 40.917969 35.960938 C 53.574219 37.378906 64.179688 35.402344 64.613281 31.542969 C 65.03125 27.832031 55.890625 23.734375 43.9375 22.160156 C 44.441406 22.207031 44.949219 22.261719 45.457031 22.316406 C 59.371094 23.878906 70.265625 28.585938 69.789062 32.828125 C 69.3125 37.074219 57.648438 39.246094 43.734375 37.6875 "/></g><path style=" stroke:none;fill-rule:nonzero;fill:#87ceeb;fill-opacity:1;" d="M 50.371094 9.503906 L 50.371094 35.660156 C 51.691406 35.625 52.953125 35.550781 54.136719 35.433594 L 54.136719 11.679688 L 50.371094 9.503906 "/><path style=" stroke:none;fill-rule:nonzero;fill:#000089;fill-opacity:1;" d="M 35.402344 30.03125 L 35.402344 34.378906 C 36.625 34.613281 37.886719 34.816406 39.167969 34.992188 L 39.167969 9.503906 L 35.402344 11.679688 L 35.402344 30.03125 "/><path style=" stroke:none;fill-rule:nonzero;fill:#87ceeb;fill-opacity:1;" d="M 50.371094 38.902344 L 50.371094 50.554688 L 54.136719 48.378906 L 54.136719 38.914062 C 53.59375 38.929688 53.042969 38.933594 52.484375 38.933594 C 51.789062 38.933594 51.082031 38.925781 50.371094 38.902344 "/><path style=" stroke:none;fill-rule:nonzero;fill:#000089;fill-opacity:1;" d="M 35.402344 48.378906 L 39.167969 50.554688 L 39.167969 37.796875 C 37.886719 37.582031 36.625 37.335938 35.402344 37.066406 L 35.402344 48.378906 "/><g clip-rule="nonzero" clip-path="url(#620b31c380)"><path style=" stroke:none;fill-rule:nonzero;fill:#000089;fill-opacity:1;" d="M 42.886719 1.996094 L 42.886719 35.410156 C 43.515625 35.464844 44.144531 35.511719 44.769531 35.546875 L 44.769531 0.910156 L 42.886719 1.996094 "/></g><g clip-rule="nonzero" clip-path="url(#aae3c6df38)"><path style=" stroke:none;fill-rule:nonzero;fill:#87ceeb;fill-opacity:1;" d="M 44.769531 0.910156 L 44.769531 35.546875 C 45.402344 35.585938 46.03125 35.617188 46.652344 35.636719 L 46.652344 1.996094 L 44.769531 0.910156 "/></g><g clip-rule="nonzero" clip-path="url(#89bacad256)"><path style=" stroke:none;fill-rule:nonzero;fill:#87ceeb;fill-opacity:1;" d="M 46.652344 58.0625 L 46.652344 38.707031 C 46.027344 38.660156 45.398438 38.605469 44.769531 38.542969 L 44.769531 59.152344 L 46.652344 58.0625 "/></g><g clip-rule="nonzero" clip-path="url(#8b773a465e)"><path style=" stroke:none;fill-rule:nonzero;fill:#000089;fill-opacity:1;" d="M 42.886719 38.335938 L 42.886719 58.0625 L 44.769531 59.152344 L 44.769531 38.542969 C 44.398438 38.503906 44.023438 38.464844 43.652344 38.425781 C 43.394531 38.394531 43.140625 38.367188 42.886719 38.335938 "/></g></g></svg>