<svg xmlns="http://www.w3.org/2000/svg" width="375" height="175" viewBox="130 110 80 220" version="1.0"><path fill="#28398c" d="M 310.597656 198.769531 C 310.925781 195.878906 310.804688 193.128906 310.769531 190.386719 C 310.75 189.03125 311.265625 188.550781 312.578125 188.523438 C 326.222656 188.242188 340.03125 177.847656 342.207031 160.945312 C 342.457031 159.019531 342.230469 158.726562 340.226562 158.707031 C 337.601562 158.683594 334.976562 158.617188 332.355469 158.679688 C 331.015625 158.714844 330.433594 158.191406 330.070312 156.910156 C 328.503906 151.433594 326.066406 146.429688 321.75 142.53125 C 319.136719 140.171875 316.078125 138.816406 312.570312 138.382812 C 311.40625 138.238281 311.03125 138.613281 311.011719 139.722656 C 310.910156 145.332031 310.820312 150.941406 310.621094 156.550781 C 310.558594 158.246094 311.636719 158.296875 312.730469 158.316406 C 317.609375 158.417969 322.488281 158.476562 327.367188 158.527344 C 330.964844 158.566406 330.964844 158.550781 330.371094 162.128906 C 328.914062 170.9375 321.007812 178.148438 312.113281 178.785156 C 309.585938 178.964844 309.335938 178.746094 309.433594 176.25 C 309.625 171.3125 309.835938 166.378906 310.050781 161.445312 C 310.167969 158.765625 310.140625 158.757812 307.375 158.695312 C 302.191406 158.582031 297.011719 158.394531 291.828125 158.304688 C 290.496094 158.28125 290.03125 157.933594 290.1875 156.472656 C 291.261719 146.554688 298.890625 139.09375 308.914062 138.355469 C 310.132812 138.265625 310.753906 137.847656 310.761719 136.644531 C 310.785156 133.777344 310.765625 130.910156 310.796875 128.042969 C 310.808594 126.746094 309.960938 126.746094 309.058594 126.792969 C 302.761719 127.128906 297.160156 129.363281 292.25 133.234375 C 284.78125 139.121094 280.875 146.925781 280.308594 156.382812 C 280.222656 157.808594 279.761719 158.3125 278.359375 158.292969 C 274.757812 158.234375 271.15625 158.234375 267.558594 158.296875 C 266.15625 158.320312 265.664062 157.898438 265.699219 156.398438 C 266.148438 135.496094 281.144531 117.421875 301.667969 113.046875 C 304.246094 112.5 306.859375 112.382812 309.453125 112.035156 C 310.996094 111.828125 311.683594 112.347656 311.648438 114.019531 C 311.566406 117.972656 311.621094 121.929688 311.621094 126.035156 C 314.195312 126.304688 316.65625 126.585938 319.070312 127.234375 C 331.722656 130.625 341.109375 141.574219 342.554688 154.523438 C 343.011719 158.605469 342.128906 158.027344 346.453125 158.101562 C 349.320312 158.152344 352.1875 158.179688 355.054688 158.144531 C 356.394531 158.128906 356.894531 158.632812 356.824219 159.992188 C 356.324219 169.878906 353.015625 178.710938 346.722656 186.332031 C 338.4375 196.378906 327.792969 202.046875 314.734375 203.003906 C 313.4375 203.097656 311.921875 203.917969 310.886719 202.816406 C 309.902344 201.773438 310.992188 200.222656 310.597656 198.769531 Z M 310.597656 198.769531 " fill-opacity="1" fill-rule="nonzero"/><path fill="#28398c" d="M 187.328125 235.570312 C 183.824219 235.566406 180.488281 235.566406 177.214844 235.566406 C 176.890625 234.503906 177.523438 234.082031 177.917969 233.585938 C 178.75 232.53125 179.746094 231.59375 180.46875 230.476562 C 182.105469 227.945312 184.09375 226.351562 187.355469 226.921875 C 188.945312 227.199219 188.839844 225.902344 188.839844 224.847656 C 188.835938 215.273438 188.773438 205.695312 188.855469 196.117188 C 188.894531 191.378906 188.382812 186.617188 189.53125 181.910156 C 192.324219 170.460938 202.476562 162.175781 214.25 161.828125 C 228.519531 161.40625 240.980469 173.421875 241 187.71875 C 241.027344 212.121094 241.003906 236.519531 241 260.921875 C 241 263.4375 240.988281 263.4375 238.449219 263.449219 C 237.105469 263.457031 235.753906 263.339844 234.425781 263.480469 C 232.726562 263.660156 232.394531 262.917969 232.40625 261.382812 C 232.46875 253.515625 232.382812 245.644531 232.46875 237.773438 C 232.488281 235.976562 231.882812 235.511719 230.15625 235.523438 C 220.03125 235.59375 209.90625 235.597656 199.777344 235.523438 C 197.964844 235.507812 197.332031 236 197.355469 237.886719 C 197.445312 245.570312 197.390625 253.257812 197.378906 260.945312 C 197.375 263.445312 197.363281 263.445312 194.808594 263.453125 C 193.464844 263.453125 192.117188 263.371094 190.78125 263.46875 C 189.238281 263.578125 188.804688 262.917969 188.8125 261.441406 C 188.863281 253.511719 188.835938 245.582031 188.828125 237.652344 C 188.824219 236.695312 189.019531 235.570312 187.328125 235.570312 M 197.394531 192.078125 C 197.390625 202.878906 197.390625 213.683594 197.386719 224.484375 C 197.386719 226.953125 197.390625 226.96875 199.777344 226.96875 C 209.847656 226.972656 219.917969 226.972656 229.988281 226.960938 C 232.417969 226.960938 232.429688 226.945312 232.429688 224.523438 C 232.433594 212.195312 232.433594 199.867188 232.429688 187.539062 C 232.429688 186.929688 232.449219 186.3125 232.363281 185.710938 C 231.171875 177.34375 224.261719 170.863281 216.082031 170.421875 C 207.117188 169.945312 199.894531 175.332031 197.796875 184.058594 C 197.191406 186.585938 197.464844 189.15625 197.394531 192.078125 Z M 197.394531 192.078125 " fill-opacity="1" fill-rule="nonzero"/><path fill="#28398c" d="M 168.9375 218.722656 C 163.761719 226.71875 156.46875 231.605469 147.207031 234.351562 C 155.382812 243.976562 163.398438 253.417969 171.566406 263.035156 C 169.90625 263.714844 168.496094 263.25 167.164062 263.46875 C 162.421875 264.242188 159.222656 262.445312 156.257812 258.5625 C 150.753906 251.347656 144.550781 244.660156 138.765625 237.652344 C 137.3125 235.886719 135.84375 235.054688 133.511719 235.1875 C 129.242188 235.433594 129.730469 234.609375 129.714844 239.019531 C 129.691406 246.34375 129.710938 253.667969 129.710938 260.988281 C 129.710938 263.457031 129.707031 263.457031 127.164062 263.460938 C 125.640625 263.460938 124.113281 263.410156 122.589844 263.476562 C 121.460938 263.527344 121.03125 263.058594 121.109375 261.972656 C 121.144531 261.425781 121.109375 260.875 121.109375 260.324219 C 121.109375 231.949219 121.109375 203.574219 121.109375 175.199219 C 121.109375 172.539062 121.101562 172.539062 118.367188 172.539062 C 115.988281 172.535156 113.609375 172.550781 111.226562 172.53125 C 110.578125 172.523438 109.882812 172.675781 109.289062 172.207031 C 109.011719 171.539062 109.546875 171.195312 109.875 170.796875 C 111.421875 168.910156 113.019531 167.066406 114.535156 165.15625 C 115.199219 164.316406 115.933594 163.929688 117.019531 163.933594 C 125.015625 163.972656 133.011719 163.832031 141.003906 164 C 156.101562 164.320312 170.40625 176.480469 173.6875 191.425781 C 175.820312 201.160156 174.195312 210.171875 168.9375 218.722656 M 152.085938 175.855469 C 150.363281 174.921875 148.546875 174.238281 146.699219 173.601562 C 142.003906 171.992188 137.160156 172.675781 132.367188 172.550781 C 129.71875 172.480469 129.707031 172.535156 129.707031 175.101562 C 129.707031 191.441406 129.710938 207.78125 129.714844 224.121094 C 129.714844 224.546875 129.734375 224.972656 129.726562 225.398438 C 129.714844 226.230469 130.121094 226.636719 130.949219 226.628906 C 135.035156 226.585938 139.183594 227.003906 143.1875 226.421875 C 155.722656 224.601562 164.492188 215.132812 165.859375 202.480469 C 167.058594 191.390625 161.925781 181.339844 152.085938 175.855469 Z M 152.085938 175.855469 " fill-opacity="1" fill-rule="nonzero"/><path fill="#28398c" d="M 290.320312 228.871094 C 290.324219 208.003906 290.324219 187.320312 290.324219 166.636719 C 290.324219 163.957031 290.328125 163.953125 293.078125 163.949219 C 294.480469 163.949219 295.882812 163.992188 297.285156 163.941406 C 298.441406 163.902344 298.992188 164.34375 298.925781 165.539062 C 298.878906 166.328125 298.921875 167.125 298.921875 167.917969 C 298.921875 199.523438 298.921875 231.128906 298.910156 262.734375 C 298.910156 263.4375 299.117188 264.183594 298.390625 265.277344 C 284.878906 241.507812 271.488281 217.960938 258.101562 194.414062 C 258.003906 194.453125 257.910156 194.496094 257.8125 194.539062 C 257.8125 199.699219 257.816406 204.859375 257.8125 210.015625 C 257.8125 226.980469 257.8125 243.941406 257.804688 260.902344 C 257.804688 263.445312 257.796875 263.449219 255.28125 263.453125 C 253.757812 263.457031 252.230469 263.425781 250.707031 263.449219 C 249.71875 263.464844 249.226562 263.058594 249.277344 262.039062 C 249.300781 261.554688 249.269531 261.0625 249.269531 260.578125 C 249.265625 228.542969 249.261719 196.511719 249.273438 164.476562 C 249.273438 163.855469 249.023438 163.152344 249.796875 162.324219 C 263.222656 185.992188 276.582031 209.539062 289.9375 233.085938 C 290.066406 233.054688 290.195312 233.023438 290.320312 232.988281 C 290.320312 231.675781 290.320312 230.363281 290.320312 228.871094 Z M 290.320312 228.871094 " fill-opacity="1" fill-rule="nonzero"/><path fill="#28398c" d="M 65.246094 166.140625 C 78.207031 171.371094 86.019531 180.800781 88.085938 194.425781 C 89.738281 205.320312 86.992188 215.222656 79.328125 223.519531 C 71.945312 231.515625 62.878906 235.457031 51.992188 235.242188 C 49.125 235.183594 46.253906 235.292969 43.390625 235.207031 C 41.933594 235.167969 41.320312 235.589844 41.304688 237.148438 C 41.234375 244.828125 41.160156 252.507812 41.328125 260.1875 C 41.398438 263.453125 41.347656 263.507812 38.191406 263.433594 C 36.453125 263.394531 34.238281 264.210938 33.097656 263.015625 C 32.050781 261.914062 32.832031 259.753906 32.832031 258.0625 C 32.800781 230.914062 32.804688 203.761719 32.800781 176.613281 C 32.800781 176.125 32.808594 175.636719 32.796875 175.148438 C 32.738281 172.714844 32.570312 172.546875 30.191406 172.542969 C 27.199219 172.539062 24.210938 172.554688 21.222656 172.539062 C 20.515625 172.535156 19.761719 172.679688 18.894531 171.960938 C 20.207031 170.402344 21.664062 169.003906 22.707031 167.347656 C 24.519531 164.476562 26.953125 163.773438 30.242188 163.875 C 38.042969 164.113281 45.855469 163.957031 53.667969 163.960938 C 57.613281 163.960938 61.414062 164.757812 65.246094 166.140625 M 41.136719 208.921875 C 41.136719 214.226562 41.167969 219.53125 41.113281 224.835938 C 41.097656 226.175781 41.539062 226.691406 42.898438 226.667969 C 46.796875 226.601562 50.703125 226.707031 54.601562 226.582031 C 58.503906 226.453125 62.21875 225.382812 65.480469 223.242188 C 74.503906 217.3125 78.511719 208.796875 78.273438 198.089844 C 78.003906 185.964844 69.058594 175.226562 57.136719 172.945312 C 52.609375 172.078125 48.011719 172.765625 43.457031 172.5 C 41.5625 172.390625 41.085938 173.078125 41.097656 174.898438 C 41.171875 186.117188 41.136719 197.335938 41.136719 208.921875 Z M 41.136719 208.921875 " fill-opacity="1" fill-rule="nonzero"/><path fill="#28398c" d="M 101.984375 180.132812 C 102.921875 179.296875 103.066406 179.824219 103.070312 180.605469 C 103.078125 182.253906 103.09375 183.902344 103.097656 185.546875 C 103.140625 207.203125 103.191406 228.859375 103.214844 250.515625 C 103.21875 254.296875 103.078125 258.074219 103.089844 261.855469 C 103.09375 263.027344 102.753906 263.511719 101.535156 263.46875 C 99.707031 263.398438 97.875 263.398438 96.046875 263.480469 C 94.789062 263.53125 94.46875 262.9375 94.484375 261.824219 C 94.523438 259.261719 94.503906 256.699219 94.503906 254.136719 C 94.507812 233.273438 94.519531 212.40625 94.480469 191.542969 C 94.476562 189.921875 94.855469 188.625 95.941406 187.394531 C 98 185.066406 99.925781 182.617188 101.984375 180.132812 Z M 101.984375 180.132812 " fill-opacity="1" fill-rule="nonzero"/><path fill="#28398c" d="M 102.625 164.089844 C 103.480469 165.355469 102.945312 166.65625 103.03125 167.910156 C 103.121094 169.183594 102.945312 170.480469 103.074219 171.75 C 103.300781 173.964844 102.640625 175.703125 101.082031 177.347656 C 98.964844 179.582031 97.101562 182.0625 95.148438 184.414062 C 94.242188 183.886719 94.5 183.207031 94.5 182.644531 C 94.488281 177.15625 94.566406 171.664062 94.476562 166.175781 C 94.449219 164.382812 95.074219 163.796875 96.8125 163.925781 C 98.691406 164.066406 100.589844 164.003906 102.625 164.089844 Z M 102.625 164.089844 " fill-opacity="1" fill-rule="nonzero"/><g fill="#00357a" fill-opacity="1"><g transform="translate(93.619885, 290.617131)"><g><path d="M 1.828125 0 L 1.828125 -16.03125 L 4.078125 -16.03125 L 4.078125 -7.96875 L 11.296875 -16.03125 L 14.109375 -16.03125 L 7.984375 -9.34375 L 14.8125 0 L 12.046875 0 L 6.484375 -7.6875 L 4.078125 -5.046875 L 4.078125 0 Z M 1.828125 0 "/></g></g></g><g fill="#00357a" fill-opacity="1"><g transform="translate(107.635909, 290.617131)"><g><path d="M 5.453125 0.28125 C 4.523438 0.28125 3.78125 0.0859375 3.21875 -0.296875 C 2.65625 -0.691406 2.25 -1.234375 2 -1.921875 C 1.75 -2.617188 1.625 -3.414062 1.625 -4.3125 L 1.625 -11.921875 L 3.640625 -11.921875 L 3.640625 -4.796875 C 3.640625 -3.921875 3.742188 -3.242188 3.953125 -2.765625 C 4.160156 -2.285156 4.453125 -1.953125 4.828125 -1.765625 C 5.210938 -1.578125 5.648438 -1.484375 6.140625 -1.484375 C 7.085938 -1.484375 7.828125 -1.816406 8.359375 -2.484375 C 8.898438 -3.148438 9.171875 -4.113281 9.171875 -5.375 L 9.171875 -11.921875 L 11.1875 -11.921875 L 11.1875 0 L 9.671875 0 L 9.171875 -1.734375 C 8.828125 -1.148438 8.367188 -0.664062 7.796875 -0.28125 C 7.222656 0.09375 6.441406 0.28125 5.453125 0.28125 Z M 5.453125 0.28125 "/></g></g></g><g fill="#00357a" fill-opacity="1"><g transform="translate(120.499938, 290.617131)"><g><path d="M 1.6875 0 L 1.6875 -11.90625 L 3.140625 -11.90625 L 3.796875 -9.703125 C 4.210938 -10.421875 4.773438 -11 5.484375 -11.4375 C 6.191406 -11.875 7.046875 -12.09375 8.046875 -12.09375 L 8.046875 -10.015625 C 7.929688 -10.015625 7.8125 -10.015625 7.6875 -10.015625 C 7.570312 -10.015625 7.457031 -10.003906 7.34375 -9.984375 C 5.976562 -9.867188 5.03125 -9.394531 4.5 -8.5625 C 3.96875 -7.726562 3.703125 -6.578125 3.703125 -5.109375 L 3.703125 0 Z M 1.6875 0 "/></g></g></g><g fill="#00357a" fill-opacity="1"><g transform="translate(128.659952, 290.617131)"><g><path d="M 5.453125 0.28125 C 4.523438 0.28125 3.78125 0.0859375 3.21875 -0.296875 C 2.65625 -0.691406 2.25 -1.234375 2 -1.921875 C 1.75 -2.617188 1.625 -3.414062 1.625 -4.3125 L 1.625 -11.921875 L 3.640625 -11.921875 L 3.640625 -4.796875 C 3.640625 -3.921875 3.742188 -3.242188 3.953125 -2.765625 C 4.160156 -2.285156 4.453125 -1.953125 4.828125 -1.765625 C 5.210938 -1.578125 5.648438 -1.484375 6.140625 -1.484375 C 7.085938 -1.484375 7.828125 -1.816406 8.359375 -2.484375 C 8.898438 -3.148438 9.171875 -4.113281 9.171875 -5.375 L 9.171875 -11.921875 L 11.1875 -11.921875 L 11.1875 0 L 9.671875 0 L 9.171875 -1.734375 C 8.828125 -1.148438 8.367188 -0.664062 7.796875 -0.28125 C 7.222656 0.09375 6.441406 0.28125 5.453125 0.28125 Z M 5.453125 0.28125 "/></g></g></g><g fill="#00357a" fill-opacity="1"><g transform="translate(141.523981, 290.617131)"><g><path d="M 1.6875 0 L 1.6875 -11.90625 L 3.171875 -11.90625 L 3.703125 -10.109375 C 4.035156 -10.660156 4.492188 -11.128906 5.078125 -11.515625 C 5.660156 -11.898438 6.390625 -12.09375 7.265625 -12.09375 C 8.179688 -12.09375 8.914062 -11.90625 9.46875 -11.53125 C 10.03125 -11.164062 10.441406 -10.660156 10.703125 -10.015625 C 11.179688 -10.742188 11.757812 -11.269531 12.4375 -11.59375 C 13.125 -11.925781 13.882812 -12.09375 14.71875 -12.09375 C 16.09375 -12.09375 17.070312 -11.671875 17.65625 -10.828125 C 18.25 -9.992188 18.546875 -8.894531 18.546875 -7.53125 L 18.546875 0 L 16.53125 0 L 16.53125 -6.9375 C 16.53125 -7.539062 16.46875 -8.101562 16.34375 -8.625 C 16.226562 -9.144531 15.988281 -9.566406 15.625 -9.890625 C 15.269531 -10.210938 14.722656 -10.375 13.984375 -10.375 C 13.128906 -10.375 12.441406 -10.039062 11.921875 -9.375 C 11.398438 -8.707031 11.140625 -7.734375 11.140625 -6.453125 L 11.140625 0 L 9.125 0 L 9.125 -6.9375 C 9.125 -7.539062 9.0625 -8.101562 8.9375 -8.625 C 8.820312 -9.144531 8.582031 -9.566406 8.21875 -9.890625 C 7.863281 -10.210938 7.316406 -10.375 6.578125 -10.375 C 5.710938 -10.375 5.015625 -10.039062 4.484375 -9.375 C 3.960938 -8.707031 3.703125 -7.734375 3.703125 -6.453125 L 3.703125 0 Z M 1.6875 0 "/></g></g></g><g fill="#00357a" fill-opacity="1"><g transform="translate(161.708015, 290.617131)"><g><path d="M 5.734375 0.28125 C 5.046875 0.28125 4.367188 0.175781 3.703125 -0.03125 C 3.046875 -0.25 2.457031 -0.578125 1.9375 -1.015625 C 1.414062 -1.460938 1.019531 -2.019531 0.75 -2.6875 L 2.6875 -3.40625 C 2.863281 -2.707031 3.25 -2.203125 3.84375 -1.890625 C 4.445312 -1.578125 5.078125 -1.421875 5.734375 -1.421875 C 6.210938 -1.421875 6.664062 -1.488281 7.09375 -1.625 C 7.519531 -1.769531 7.867188 -1.976562 8.140625 -2.25 C 8.410156 -2.519531 8.546875 -2.832031 8.546875 -3.1875 C 8.546875 -3.84375 8.285156 -4.304688 7.765625 -4.578125 C 7.242188 -4.847656 6.625 -5.054688 5.90625 -5.203125 L 4.25 -5.546875 C 3.675781 -5.671875 3.140625 -5.847656 2.640625 -6.078125 C 2.140625 -6.316406 1.738281 -6.648438 1.4375 -7.078125 C 1.132812 -7.515625 0.984375 -8.09375 0.984375 -8.8125 C 0.984375 -9.53125 1.207031 -10.132812 1.65625 -10.625 C 2.101562 -11.113281 2.675781 -11.484375 3.375 -11.734375 C 4.070312 -11.992188 4.800781 -12.125 5.5625 -12.125 C 6.507812 -12.125 7.398438 -11.925781 8.234375 -11.53125 C 9.078125 -11.132812 9.675781 -10.523438 10.03125 -9.703125 L 8.140625 -9 C 7.929688 -9.476562 7.566406 -9.832031 7.046875 -10.0625 C 6.523438 -10.300781 5.984375 -10.421875 5.421875 -10.421875 C 4.816406 -10.421875 4.265625 -10.28125 3.765625 -10 C 3.273438 -9.726562 3.03125 -9.335938 3.03125 -8.828125 C 3.03125 -8.316406 3.238281 -7.945312 3.65625 -7.71875 C 4.082031 -7.488281 4.609375 -7.304688 5.234375 -7.171875 L 6.796875 -6.859375 C 7.429688 -6.734375 8.035156 -6.550781 8.609375 -6.3125 C 9.191406 -6.070312 9.664062 -5.710938 10.03125 -5.234375 C 10.394531 -4.765625 10.578125 -4.109375 10.578125 -3.265625 C 10.578125 -2.515625 10.34375 -1.875 9.875 -1.34375 C 9.414062 -0.8125 8.816406 -0.40625 8.078125 -0.125 C 7.347656 0.144531 6.566406 0.28125 5.734375 0.28125 Z M 5.734375 0.28125 "/></g></g></g><g fill="#00357a" fill-opacity="1"><g transform="translate(173.012042, 290.617131)"><g><path d="M 5.015625 0.28125 C 4.265625 0.28125 3.578125 0.144531 2.953125 -0.125 C 2.328125 -0.394531 1.828125 -0.785156 1.453125 -1.296875 C 1.085938 -1.804688 0.90625 -2.421875 0.90625 -3.140625 C 0.90625 -4.085938 1.238281 -4.832031 1.90625 -5.375 C 2.570312 -5.914062 3.507812 -6.332031 4.71875 -6.625 C 5.925781 -6.925781 7.335938 -7.164062 8.953125 -7.34375 C 8.984375 -8.351562 8.78125 -9.128906 8.34375 -9.671875 C 7.914062 -10.210938 7.222656 -10.484375 6.265625 -10.484375 C 5.546875 -10.484375 4.957031 -10.316406 4.5 -9.984375 C 4.039062 -9.660156 3.75 -9.210938 3.625 -8.640625 L 1.6875 -9.21875 C 2 -10.125 2.566406 -10.828125 3.390625 -11.328125 C 4.210938 -11.835938 5.160156 -12.09375 6.234375 -12.09375 C 7.890625 -12.09375 9.09375 -11.703125 9.84375 -10.921875 C 10.601562 -10.148438 10.984375 -8.929688 10.984375 -7.265625 L 10.984375 -4.484375 C 10.984375 -3.492188 11.023438 -2.640625 11.109375 -1.921875 C 11.191406 -1.203125 11.289062 -0.5625 11.40625 0 L 9.546875 0 L 9.078125 -1.625 C 8.722656 -1.039062 8.21875 -0.578125 7.5625 -0.234375 C 6.90625 0.109375 6.054688 0.28125 5.015625 0.28125 Z M 5.453125 -1.3125 C 6.078125 -1.3125 6.664062 -1.421875 7.21875 -1.640625 C 7.78125 -1.867188 8.238281 -2.25 8.59375 -2.78125 C 8.945312 -3.320312 9.125 -4.054688 9.125 -4.984375 L 9.125 -5.734375 C 7.90625 -5.609375 6.847656 -5.453125 5.953125 -5.265625 C 5.054688 -5.078125 4.363281 -4.820312 3.875 -4.5 C 3.382812 -4.175781 3.140625 -3.738281 3.140625 -3.1875 C 3.140625 -2.632812 3.34375 -2.179688 3.75 -1.828125 C 4.164062 -1.484375 4.734375 -1.3125 5.453125 -1.3125 Z M 5.453125 -1.3125 "/></g></g></g><g fill="#00357a" fill-opacity="1"><g transform="translate(185.636065, 290.617131)"><g><path d="M 4.484375 0 C 3.734375 0 3.15625 -0.0703125 2.75 -0.21875 C 2.34375 -0.375 2.0625 -0.664062 1.90625 -1.09375 C 1.757812 -1.53125 1.6875 -2.15625 1.6875 -2.96875 L 1.6875 -16.015625 L 3.703125 -16.015625 L 3.703125 -3.3125 C 3.703125 -2.707031 3.765625 -2.300781 3.890625 -2.09375 C 4.015625 -1.882812 4.359375 -1.78125 4.921875 -1.78125 L 5.375 -1.78125 L 5.375 0 Z M 4.484375 0 "/></g></g></g><g fill="#00357a" fill-opacity="1"><g transform="translate(191.372072, 290.617131)"><g/></g></g><g fill="#00357a" fill-opacity="1"><g transform="translate(198.092088, 290.617131)"><g><path d="M 1.828125 0 L 1.828125 -16.03125 L 4.078125 -16.03125 L 4.078125 -9.21875 L 12.484375 -9.21875 L 12.484375 -16.03125 L 14.734375 -16.03125 L 14.734375 0 L 12.484375 0 L 12.484375 -7.265625 L 4.078125 -7.265625 L 4.078125 0 Z M 1.828125 0 "/></g></g></g><g fill="#00357a" fill-opacity="1"><g transform="translate(214.652123, 290.617131)"><g><path d="M 3.75 -14.15625 C 3.34375 -14.15625 2.988281 -14.300781 2.6875 -14.59375 C 2.394531 -14.894531 2.25 -15.253906 2.25 -15.671875 C 2.25 -16.085938 2.394531 -16.4375 2.6875 -16.71875 C 2.988281 -17.007812 3.34375 -17.15625 3.75 -17.15625 C 4.164062 -17.15625 4.519531 -17.007812 4.8125 -16.71875 C 5.101562 -16.4375 5.25 -16.085938 5.25 -15.671875 C 5.25 -15.253906 5.101562 -14.894531 4.8125 -14.59375 C 4.519531 -14.300781 4.164062 -14.15625 3.75 -14.15625 Z M 2.734375 0 L 2.734375 -10.296875 L 1.078125 -10.296875 L 1.078125 -11.90625 L 4.75 -11.90625 L 4.75 0 Z M 2.734375 0 "/></g></g></g><g fill="#00357a" fill-opacity="1"><g transform="translate(221.324131, 290.617131)"><g><path d="M 0.953125 0 L 0.953125 -1.78125 L 7.796875 -10.125 L 1.171875 -10.125 L 1.171875 -11.90625 L 10.078125 -11.90625 L 10.078125 -10.125 L 3.234375 -1.78125 L 10.3125 -1.78125 L 10.3125 0 Z M 0.953125 0 "/></g></g></g><g fill="#00357a" fill-opacity="1"><g transform="translate(232.364154, 290.617131)"><g><path d="M 1.6875 0 L 1.6875 -11.90625 L 3.171875 -11.90625 L 3.703125 -10.109375 C 4.035156 -10.660156 4.492188 -11.128906 5.078125 -11.515625 C 5.660156 -11.898438 6.390625 -12.09375 7.265625 -12.09375 C 8.179688 -12.09375 8.914062 -11.90625 9.46875 -11.53125 C 10.03125 -11.164062 10.441406 -10.660156 10.703125 -10.015625 C 11.179688 -10.742188 11.757812 -11.269531 12.4375 -11.59375 C 13.125 -11.925781 13.882812 -12.09375 14.71875 -12.09375 C 16.09375 -12.09375 17.070312 -11.671875 17.65625 -10.828125 C 18.25 -9.992188 18.546875 -8.894531 18.546875 -7.53125 L 18.546875 0 L 16.53125 0 L 16.53125 -6.9375 C 16.53125 -7.539062 16.46875 -8.101562 16.34375 -8.625 C 16.226562 -9.144531 15.988281 -9.566406 15.625 -9.890625 C 15.269531 -10.210938 14.722656 -10.375 13.984375 -10.375 C 13.128906 -10.375 12.441406 -10.039062 11.921875 -9.375 C 11.398438 -8.707031 11.140625 -7.734375 11.140625 -6.453125 L 11.140625 0 L 9.125 0 L 9.125 -6.9375 C 9.125 -7.539062 9.0625 -8.101562 8.9375 -8.625 C 8.820312 -9.144531 8.582031 -9.566406 8.21875 -9.890625 C 7.863281 -10.210938 7.316406 -10.375 6.578125 -10.375 C 5.710938 -10.375 5.015625 -10.039062 4.484375 -9.375 C 3.960938 -8.707031 3.703125 -7.734375 3.703125 -6.453125 L 3.703125 0 Z M 1.6875 0 "/></g></g></g><g fill="#00357a" fill-opacity="1"><g transform="translate(252.284185, 290.617131)"><g><path d="M 6.75 0.28125 C 5.5 0.28125 4.441406 0.00390625 3.578125 -0.546875 C 2.710938 -1.097656 2.050781 -1.835938 1.59375 -2.765625 C 1.132812 -3.703125 0.90625 -4.753906 0.90625 -5.921875 C 0.90625 -7.191406 1.160156 -8.285156 1.671875 -9.203125 C 2.191406 -10.117188 2.882812 -10.828125 3.75 -11.328125 C 4.625 -11.835938 5.609375 -12.09375 6.703125 -12.09375 C 7.640625 -12.09375 8.46875 -11.90625 9.1875 -11.53125 C 9.90625 -11.15625 10.5 -10.648438 10.96875 -10.015625 C 11.445312 -9.390625 11.796875 -8.675781 12.015625 -7.875 C 12.234375 -7.070312 12.304688 -6.25 12.234375 -5.40625 L 3.078125 -5.40625 C 3.109375 -4.40625 3.328125 -3.617188 3.734375 -3.046875 C 4.140625 -2.472656 4.625 -2.066406 5.1875 -1.828125 C 5.75 -1.597656 6.269531 -1.484375 6.75 -1.484375 C 7.414062 -1.484375 7.976562 -1.59375 8.4375 -1.8125 C 8.894531 -2.03125 9.257812 -2.3125 9.53125 -2.65625 L 11.46875 -2.09375 C 11.039062 -1.40625 10.425781 -0.835938 9.625 -0.390625 C 8.820312 0.0546875 7.863281 0.28125 6.75 0.28125 Z M 3.09375 -7.015625 L 10.109375 -7.015625 C 10.109375 -7.566406 9.96875 -8.097656 9.6875 -8.609375 C 9.40625 -9.128906 9.007812 -9.550781 8.5 -9.875 C 8 -10.207031 7.398438 -10.375 6.703125 -10.375 C 6.109375 -10.375 5.546875 -10.257812 5.015625 -10.03125 C 4.484375 -9.8125 4.046875 -9.453125 3.703125 -8.953125 C 3.359375 -8.453125 3.15625 -7.804688 3.09375 -7.015625 Z M 3.09375 -7.015625 "/></g></g></g><g fill="#00357a" fill-opacity="1"><g transform="translate(265.220208, 290.617131)"><g><path d="M 5.296875 0 C 4.546875 0 3.96875 -0.0703125 3.5625 -0.21875 C 3.15625 -0.375 2.875 -0.664062 2.71875 -1.09375 C 2.570312 -1.53125 2.5 -2.15625 2.5 -2.96875 L 2.5 -10.296875 L 0.484375 -10.296875 L 0.484375 -11.90625 L 2.5 -11.90625 L 2.5 -14.90625 L 4.515625 -14.90625 L 4.515625 -11.90625 L 6.8125 -11.90625 L 6.8125 -10.296875 L 4.515625 -10.296875 L 4.515625 -3.3125 C 4.515625 -2.707031 4.570312 -2.300781 4.6875 -2.09375 C 4.8125 -1.882812 5.160156 -1.78125 5.734375 -1.78125 L 6.8125 -1.78125 L 6.8125 0 Z M 5.296875 0 "/></g></g></g><g fill="#00357a" fill-opacity="1"><g transform="translate(272.996228, 290.617131)"><g><path d="M 4.484375 0 C 3.734375 0 3.15625 -0.0703125 2.75 -0.21875 C 2.34375 -0.375 2.0625 -0.664062 1.90625 -1.09375 C 1.757812 -1.53125 1.6875 -2.15625 1.6875 -2.96875 L 1.6875 -16.015625 L 3.703125 -16.015625 L 3.703125 -3.3125 C 3.703125 -2.707031 3.765625 -2.300781 3.890625 -2.09375 C 4.015625 -1.882812 4.359375 -1.78125 4.921875 -1.78125 L 5.375 -1.78125 L 5.375 0 Z M 4.484375 0 "/></g></g></g><g fill="#00357a" fill-opacity="1"><g transform="translate(278.732235, 290.617131)"><g><path d="M 6.75 0.28125 C 5.5 0.28125 4.441406 0.00390625 3.578125 -0.546875 C 2.710938 -1.097656 2.050781 -1.835938 1.59375 -2.765625 C 1.132812 -3.703125 0.90625 -4.753906 0.90625 -5.921875 C 0.90625 -7.191406 1.160156 -8.285156 1.671875 -9.203125 C 2.191406 -10.117188 2.882812 -10.828125 3.75 -11.328125 C 4.625 -11.835938 5.609375 -12.09375 6.703125 -12.09375 C 7.640625 -12.09375 8.46875 -11.90625 9.1875 -11.53125 C 9.90625 -11.15625 10.5 -10.648438 10.96875 -10.015625 C 11.445312 -9.390625 11.796875 -8.675781 12.015625 -7.875 C 12.234375 -7.070312 12.304688 -6.25 12.234375 -5.40625 L 3.078125 -5.40625 C 3.109375 -4.40625 3.328125 -3.617188 3.734375 -3.046875 C 4.140625 -2.472656 4.625 -2.066406 5.1875 -1.828125 C 5.75 -1.597656 6.269531 -1.484375 6.75 -1.484375 C 7.414062 -1.484375 7.976562 -1.59375 8.4375 -1.8125 C 8.894531 -2.03125 9.257812 -2.3125 9.53125 -2.65625 L 11.46875 -2.09375 C 11.039062 -1.40625 10.425781 -0.835938 9.625 -0.390625 C 8.820312 0.0546875 7.863281 0.28125 6.75 0.28125 Z M 3.09375 -7.015625 L 10.109375 -7.015625 C 10.109375 -7.566406 9.96875 -8.097656 9.6875 -8.609375 C 9.40625 -9.128906 9.007812 -9.550781 8.5 -9.875 C 8 -10.207031 7.398438 -10.375 6.703125 -10.375 C 6.109375 -10.375 5.546875 -10.257812 5.015625 -10.03125 C 4.484375 -9.8125 4.046875 -9.453125 3.703125 -8.953125 C 3.359375 -8.453125 3.15625 -7.804688 3.09375 -7.015625 Z M 3.09375 -7.015625 "/></g></g></g><g fill="#00357a" fill-opacity="1"><g transform="translate(291.668258, 290.617131)"><g><path d="M 1.6875 0 L 1.6875 -11.90625 L 3.140625 -11.90625 L 3.796875 -9.703125 C 4.210938 -10.421875 4.773438 -11 5.484375 -11.4375 C 6.191406 -11.875 7.046875 -12.09375 8.046875 -12.09375 L 8.046875 -10.015625 C 7.929688 -10.015625 7.8125 -10.015625 7.6875 -10.015625 C 7.570312 -10.015625 7.457031 -10.003906 7.34375 -9.984375 C 5.976562 -9.867188 5.03125 -9.394531 4.5 -8.5625 C 3.96875 -7.726562 3.703125 -6.578125 3.703125 -5.109375 L 3.703125 0 Z M 1.6875 0 "/></g></g></g></svg>