<svg xmlns="http://www.w3.org/2000/svg" xmlns:xlink="http://www.w3.org/1999/xlink" width="375" height="175" viewBox="130 110 80 220" preserveAspectRatio="xMidYMid meet" version="1.0"><defs><g/></defs><path fill="#28398c" d="M 310.597656 198.769531 C 310.925781 195.878906 310.804688 193.128906 310.769531 190.386719 C 310.75 189.03125 311.265625 188.550781 312.578125 188.523438 C 326.222656 188.242188 340.03125 177.847656 342.207031 160.945312 C 342.457031 159.019531 342.230469 158.726562 340.226562 158.707031 C 337.601562 158.683594 334.976562 158.617188 332.355469 158.679688 C 331.015625 158.714844 330.433594 158.191406 330.070312 156.910156 C 328.503906 151.433594 326.066406 146.429688 321.75 142.53125 C 319.136719 140.171875 316.078125 138.816406 312.570312 138.382812 C 311.40625 138.238281 311.03125 138.613281 311.011719 139.722656 C 310.910156 145.332031 310.820312 150.941406 310.621094 156.550781 C 310.558594 158.246094 311.636719 158.296875 312.730469 158.316406 C 317.609375 158.417969 322.488281 158.476562 327.367188 158.527344 C 330.964844 158.566406 330.964844 158.550781 330.371094 162.128906 C 328.914062 170.9375 321.007812 178.148438 312.113281 178.785156 C 309.585938 178.964844 309.335938 178.746094 309.433594 176.25 C 309.625 171.3125 309.835938 166.378906 310.050781 161.445312 C 310.167969 158.765625 310.140625 158.757812 307.375 158.695312 C 302.191406 158.582031 297.011719 158.394531 291.828125 158.304688 C 290.496094 158.28125 290.03125 157.933594 290.1875 156.472656 C 291.261719 146.554688 298.890625 139.09375 308.914062 138.355469 C 310.132812 138.265625 310.753906 137.847656 310.761719 136.644531 C 310.785156 133.777344 310.765625 130.910156 310.796875 128.042969 C 310.808594 126.746094 309.960938 126.746094 309.058594 126.792969 C 302.761719 127.128906 297.160156 129.363281 292.25 133.234375 C 284.78125 139.121094 280.875 146.925781 280.308594 156.382812 C 280.222656 157.808594 279.761719 158.3125 278.359375 158.292969 C 274.757812 158.234375 271.15625 158.234375 267.558594 158.296875 C 266.15625 158.320312 265.664062 157.898438 265.699219 156.398438 C 266.148438 135.496094 281.144531 117.421875 301.667969 113.046875 C 304.246094 112.5 306.859375 112.382812 309.453125 112.035156 C 310.996094 111.828125 311.683594 112.347656 311.648438 114.019531 C 311.566406 117.972656 311.621094 121.929688 311.621094 126.035156 C 314.195312 126.304688 316.65625 126.585938 319.070312 127.234375 C 331.722656 130.625 341.109375 141.574219 342.554688 154.523438 C 343.011719 158.605469 342.128906 158.027344 346.453125 158.101562 C 349.320312 158.152344 352.1875 158.179688 355.054688 158.144531 C 356.394531 158.128906 356.894531 158.632812 356.824219 159.992188 C 356.324219 169.878906 353.015625 178.710938 346.722656 186.332031 C 338.4375 196.378906 327.792969 202.046875 314.734375 203.003906 C 313.4375 203.097656 311.921875 203.917969 310.886719 202.816406 C 309.902344 201.773438 310.992188 200.222656 310.597656 198.769531 Z M 310.597656 198.769531 " fill-opacity="1" fill-rule="nonzero"/><path fill="#28398c" d="M 187.328125 235.570312 C 183.824219 235.566406 180.488281 235.566406 177.214844 235.566406 C 176.890625 234.503906 177.523438 234.082031 177.917969 233.585938 C 178.75 232.53125 179.746094 231.59375 180.46875 230.476562 C 182.105469 227.945312 184.09375 226.351562 187.355469 226.921875 C 188.945312 227.199219 188.839844 225.902344 188.839844 224.847656 C 188.835938 215.273438 188.773438 205.695312 188.855469 196.117188 C 188.894531 191.378906 188.382812 186.617188 189.53125 181.910156 C 192.324219 170.460938 202.476562 162.175781 214.25 161.828125 C 228.519531 161.40625 240.980469 173.421875 241 187.71875 C 241.027344 212.121094 241.003906 236.519531 241 260.921875 C 241 263.4375 240.988281 263.4375 238.449219 263.449219 C 237.105469 263.457031 235.753906 263.339844 234.425781 263.480469 C 232.726562 263.660156 232.394531 262.917969 232.40625 261.382812 C 232.46875 253.515625 232.382812 245.644531 232.46875 237.773438 C 232.488281 235.976562 231.882812 235.511719 230.15625 235.523438 C 220.03125 235.59375 209.90625 235.597656 199.777344 235.523438 C 197.964844 235.507812 197.332031 236 197.355469 237.886719 C 197.445312 245.570312 197.390625 253.257812 197.378906 260.945312 C 197.375 263.445312 197.363281 263.445312 194.808594 263.453125 C 193.464844 263.453125 192.117188 263.371094 190.78125 263.46875 C 189.238281 263.578125 188.804688 262.917969 188.8125 261.441406 C 188.863281 253.511719 188.835938 245.582031 188.828125 237.652344 C 188.824219 236.695312 189.019531 235.570312 187.328125 235.570312 M 197.394531 192.078125 C 197.390625 202.878906 197.390625 213.683594 197.386719 224.484375 C 197.386719 226.953125 197.390625 226.96875 199.777344 226.96875 C 209.847656 226.972656 219.917969 226.972656 229.988281 226.960938 C 232.417969 226.960938 232.429688 226.945312 232.429688 224.523438 C 232.433594 212.195312 232.433594 199.867188 232.429688 187.539062 C 232.429688 186.929688 232.449219 186.3125 232.363281 185.710938 C 231.171875 177.34375 224.261719 170.863281 216.082031 170.421875 C 207.117188 169.945312 199.894531 175.332031 197.796875 184.058594 C 197.191406 186.585938 197.464844 189.15625 197.394531 192.078125 Z M 197.394531 192.078125 " fill-opacity="1" fill-rule="nonzero"/><path fill="#28398c" d="M 168.9375 218.722656 C 163.761719 226.71875 156.46875 231.605469 147.207031 234.351562 C 155.382812 243.976562 163.398438 253.417969 171.566406 263.035156 C 169.90625 263.714844 168.496094 263.25 167.164062 263.46875 C 162.421875 264.242188 159.222656 262.445312 156.257812 258.5625 C 150.753906 251.347656 144.550781 244.660156 138.765625 237.652344 C 137.3125 235.886719 135.84375 235.054688 133.511719 235.1875 C 129.242188 235.433594 129.730469 234.609375 129.714844 239.019531 C 129.691406 246.34375 129.710938 253.667969 129.710938 260.988281 C 129.710938 263.457031 129.707031 263.457031 127.164062 263.460938 C 125.640625 263.460938 124.113281 263.410156 122.589844 263.476562 C 121.460938 263.527344 121.03125 263.058594 121.109375 261.972656 C 121.144531 261.425781 121.109375 260.875 121.109375 260.324219 C 121.109375 231.949219 121.109375 203.574219 121.109375 175.199219 C 121.109375 172.539062 121.101562 172.539062 118.367188 172.539062 C 115.988281 172.535156 113.609375 172.550781 111.226562 172.53125 C 110.578125 172.523438 109.882812 172.675781 109.289062 172.207031 C 109.011719 171.539062 109.546875 171.195312 109.875 170.796875 C 111.421875 168.910156 113.019531 167.066406 114.535156 165.15625 C 115.199219 164.316406 115.933594 163.929688 117.019531 163.933594 C 125.015625 163.972656 133.011719 163.832031 141.003906 164 C 156.101562 164.320312 170.40625 176.480469 173.6875 191.425781 C 175.820312 201.160156 174.195312 210.171875 168.9375 218.722656 M 152.085938 175.855469 C 150.363281 174.921875 148.546875 174.238281 146.699219 173.601562 C 142.003906 171.992188 137.160156 172.675781 132.367188 172.550781 C 129.71875 172.480469 129.707031 172.535156 129.707031 175.101562 C 129.707031 191.441406 129.710938 207.78125 129.714844 224.121094 C 129.714844 224.546875 129.734375 224.972656 129.726562 225.398438 C 129.714844 226.230469 130.121094 226.636719 130.949219 226.628906 C 135.035156 226.585938 139.183594 227.003906 143.1875 226.421875 C 155.722656 224.601562 164.492188 215.132812 165.859375 202.480469 C 167.058594 191.390625 161.925781 181.339844 152.085938 175.855469 Z M 152.085938 175.855469 " fill-opacity="1" fill-rule="nonzero"/><path fill="#28398c" d="M 290.320312 228.871094 C 290.324219 208.003906 290.324219 187.320312 290.324219 166.636719 C 290.324219 163.957031 290.328125 163.953125 293.078125 163.949219 C 294.480469 163.949219 295.882812 163.992188 297.285156 163.941406 C 298.441406 163.902344 298.992188 164.34375 298.925781 165.539062 C 298.878906 166.328125 298.921875 167.125 298.921875 167.917969 C 298.921875 199.523438 298.921875 231.128906 298.910156 262.734375 C 298.910156 263.4375 299.117188 264.183594 298.390625 265.277344 C 284.878906 241.507812 271.488281 217.960938 258.101562 194.414062 C 258.003906 194.453125 257.910156 194.496094 257.8125 194.539062 C 257.8125 199.699219 257.816406 204.859375 257.8125 210.015625 C 257.8125 226.980469 257.8125 243.941406 257.804688 260.902344 C 257.804688 263.445312 257.796875 263.449219 255.28125 263.453125 C 253.757812 263.457031 252.230469 263.425781 250.707031 263.449219 C 249.71875 263.464844 249.226562 263.058594 249.277344 262.039062 C 249.300781 261.554688 249.269531 261.0625 249.269531 260.578125 C 249.265625 228.542969 249.261719 196.511719 249.273438 164.476562 C 249.273438 163.855469 249.023438 163.152344 249.796875 162.324219 C 263.222656 185.992188 276.582031 209.539062 289.9375 233.085938 C 290.066406 233.054688 290.195312 233.023438 290.320312 232.988281 C 290.320312 231.675781 290.320312 230.363281 290.320312 228.871094 Z M 290.320312 228.871094 " fill-opacity="1" fill-rule="nonzero"/><path fill="#28398c" d="M 65.246094 166.140625 C 78.207031 171.371094 86.019531 180.800781 88.085938 194.425781 C 89.738281 205.320312 86.992188 215.222656 79.328125 223.519531 C 71.945312 231.515625 62.878906 235.457031 51.992188 235.242188 C 49.125 235.183594 46.253906 235.292969 43.390625 235.207031 C 41.933594 235.167969 41.320312 235.589844 41.304688 237.148438 C 41.234375 244.828125 41.160156 252.507812 41.328125 260.1875 C 41.398438 263.453125 41.347656 263.507812 38.191406 263.433594 C 36.453125 263.394531 34.238281 264.210938 33.097656 263.015625 C 32.050781 261.914062 32.832031 259.753906 32.832031 258.0625 C 32.800781 230.914062 32.804688 203.761719 32.800781 176.613281 C 32.800781 176.125 32.808594 175.636719 32.796875 175.148438 C 32.738281 172.714844 32.570312 172.546875 30.191406 172.542969 C 27.199219 172.539062 24.210938 172.554688 21.222656 172.539062 C 20.515625 172.535156 19.761719 172.679688 18.894531 171.960938 C 20.207031 170.402344 21.664062 169.003906 22.707031 167.347656 C 24.519531 164.476562 26.953125 163.773438 30.242188 163.875 C 38.042969 164.113281 45.855469 163.957031 53.667969 163.960938 C 57.613281 163.960938 61.414062 164.757812 65.246094 166.140625 M 41.136719 208.921875 C 41.136719 214.226562 41.167969 219.53125 41.113281 224.835938 C 41.097656 226.175781 41.539062 226.691406 42.898438 226.667969 C 46.796875 226.601562 50.703125 226.707031 54.601562 226.582031 C 58.503906 226.453125 62.21875 225.382812 65.480469 223.242188 C 74.503906 217.3125 78.511719 208.796875 78.273438 198.089844 C 78.003906 185.964844 69.058594 175.226562 57.136719 172.945312 C 52.609375 172.078125 48.011719 172.765625 43.457031 172.5 C 41.5625 172.390625 41.085938 173.078125 41.097656 174.898438 C 41.171875 186.117188 41.136719 197.335938 41.136719 208.921875 Z M 41.136719 208.921875 " fill-opacity="1" fill-rule="nonzero"/><path fill="#28398c" d="M 101.984375 180.132812 C 102.921875 179.296875 103.066406 179.824219 103.070312 180.605469 C 103.078125 182.253906 103.09375 183.902344 103.097656 185.546875 C 103.140625 207.203125 103.191406 228.859375 103.214844 250.515625 C 103.21875 254.296875 103.078125 258.074219 103.089844 261.855469 C 103.09375 263.027344 102.753906 263.511719 101.535156 263.46875 C 99.707031 263.398438 97.875 263.398438 96.046875 263.480469 C 94.789062 263.53125 94.46875 262.9375 94.484375 261.824219 C 94.523438 259.261719 94.503906 256.699219 94.503906 254.136719 C 94.507812 233.273438 94.519531 212.40625 94.480469 191.542969 C 94.476562 189.921875 94.855469 188.625 95.941406 187.394531 C 98 185.066406 99.925781 182.617188 101.984375 180.132812 Z M 101.984375 180.132812 " fill-opacity="1" fill-rule="nonzero"/><path fill="#28398c" d="M 102.625 164.089844 C 103.480469 165.355469 102.945312 166.65625 103.03125 167.910156 C 103.121094 169.183594 102.945312 170.480469 103.074219 171.75 C 103.300781 173.964844 102.640625 175.703125 101.082031 177.347656 C 98.964844 179.582031 97.101562 182.0625 95.148438 184.414062 C 94.242188 183.886719 94.5 183.207031 94.5 182.644531 C 94.488281 177.15625 94.566406 171.664062 94.476562 166.175781 C 94.449219 164.382812 95.074219 163.796875 96.8125 163.925781 C 98.691406 164.066406 100.589844 164.003906 102.625 164.089844 Z M 102.625 164.089844 " fill-opacity="1" fill-rule="nonzero"/><g fill="#00357a" fill-opacity="1"><g transform="translate(135.959732, 298.81709)"><g><path d="M 2.109375 0 L 2.109375 -2.375 L 5.125 -2.375 L 5.125 -19.015625 L 2.109375 -19.015625 L 2.109375 -21.375 L 11.140625 -21.375 L 11.140625 -19.015625 L 8.125 -19.015625 L 8.125 -2.375 L 11.140625 -2.375 L 11.140625 0 Z M 2.109375 0 "/></g></g></g><g fill="#00357a" fill-opacity="1"><g transform="translate(140.854965, 298.81709)"><g><path d="M 1.71875 -24.375 C 1.25 -24.375 0.84375 -24.546875 0.5 -24.890625 C 0.164062 -25.234375 0 -25.640625 0 -26.109375 C 0 -26.597656 0.164062 -27.007812 0.5 -27.34375 C 0.84375 -27.675781 1.25 -27.84375 1.71875 -27.84375 C 2.207031 -27.84375 2.617188 -27.675781 2.953125 -27.34375 C 3.285156 -27.007812 3.453125 -26.597656 3.453125 -26.109375 C 3.453125 -25.640625 3.285156 -25.234375 2.953125 -24.890625 C 2.617188 -24.546875 2.207031 -24.375 1.71875 -24.375 Z M 1.71875 -24.375 "/></g></g></g><g fill="#00357a" fill-opacity="1"><g transform="translate(149.204471, 298.81709)"><g><path d="M 7.640625 0.390625 C 6.722656 0.390625 5.820312 0.242188 4.9375 -0.046875 C 4.050781 -0.335938 3.257812 -0.773438 2.5625 -1.359375 C 1.875 -1.941406 1.347656 -2.679688 0.984375 -3.578125 L 3.578125 -4.546875 C 3.816406 -3.609375 4.335938 -2.929688 5.140625 -2.515625 C 5.941406 -2.097656 6.773438 -1.890625 7.640625 -1.890625 C 8.285156 -1.890625 8.890625 -1.984375 9.453125 -2.171875 C 10.015625 -2.367188 10.476562 -2.644531 10.84375 -3 C 11.207031 -3.363281 11.390625 -3.78125 11.390625 -4.25 C 11.390625 -5.125 11.039062 -5.742188 10.34375 -6.109375 C 9.65625 -6.472656 8.832031 -6.75 7.875 -6.9375 L 5.65625 -7.390625 C 4.894531 -7.554688 4.179688 -7.796875 3.515625 -8.109375 C 2.859375 -8.421875 2.328125 -8.863281 1.921875 -9.4375 C 1.515625 -10.007812 1.3125 -10.78125 1.3125 -11.75 C 1.3125 -12.707031 1.609375 -13.507812 2.203125 -14.15625 C 2.804688 -14.8125 3.570312 -15.304688 4.5 -15.640625 C 5.425781 -15.984375 6.398438 -16.15625 7.421875 -16.15625 C 8.679688 -16.15625 9.867188 -15.894531 10.984375 -15.375 C 12.109375 -14.851562 12.90625 -14.035156 13.375 -12.921875 L 10.84375 -12 C 10.570312 -12.632812 10.085938 -13.109375 9.390625 -13.421875 C 8.703125 -13.734375 7.984375 -13.890625 7.234375 -13.890625 C 6.421875 -13.890625 5.679688 -13.707031 5.015625 -13.34375 C 4.359375 -12.976562 4.03125 -12.457031 4.03125 -11.78125 C 4.03125 -11.09375 4.3125 -10.59375 4.875 -10.28125 C 5.445312 -9.976562 6.144531 -9.738281 6.96875 -9.5625 L 9.0625 -9.15625 C 9.914062 -8.976562 10.722656 -8.726562 11.484375 -8.40625 C 12.253906 -8.09375 12.882812 -7.617188 13.375 -6.984375 C 13.863281 -6.359375 14.109375 -5.484375 14.109375 -4.359375 C 14.109375 -3.347656 13.796875 -2.488281 13.171875 -1.78125 C 12.554688 -1.082031 11.757812 -0.546875 10.78125 -0.171875 C 9.800781 0.203125 8.753906 0.390625 7.640625 0.390625 Z M 7.328125 5.796875 C 6.921875 5.796875 6.488281 5.738281 6.03125 5.625 C 5.570312 5.519531 5.066406 5.363281 4.515625 5.15625 L 4.96875 4.03125 C 5.320312 4.175781 5.65625 4.285156 5.96875 4.359375 C 6.28125 4.441406 6.5625 4.484375 6.8125 4.484375 C 7.375 4.484375 7.785156 4.363281 8.046875 4.125 C 8.316406 3.894531 8.453125 3.648438 8.453125 3.390625 C 8.453125 3.179688 8.359375 2.992188 8.171875 2.828125 C 7.992188 2.671875 7.703125 2.59375 7.296875 2.59375 C 7.148438 2.59375 6.992188 2.609375 6.828125 2.640625 C 6.671875 2.671875 6.5 2.707031 6.3125 2.75 C 6.03125 2.832031 5.804688 2.800781 5.640625 2.65625 C 5.484375 2.507812 5.40625 2.335938 5.40625 2.140625 C 5.40625 2.015625 5.4375 1.910156 5.5 1.828125 L 7.140625 -0.796875 L 8.234375 -0.125 L 7.265625 1.4375 C 7.441406 1.394531 7.609375 1.363281 7.765625 1.34375 C 7.921875 1.320312 8.078125 1.3125 8.234375 1.3125 C 8.972656 1.3125 9.523438 1.507812 9.890625 1.90625 C 10.253906 2.300781 10.4375 2.753906 10.4375 3.265625 C 10.4375 3.859375 10.179688 4.425781 9.671875 4.96875 C 9.160156 5.519531 8.378906 5.796875 7.328125 5.796875 Z M 7.328125 5.796875 "/></g></g></g><g fill="#00357a" fill-opacity="1"><g transform="translate(164.272768, 298.81709)"><g><path d="M 5.984375 0 C 4.984375 0 4.207031 -0.0976562 3.65625 -0.296875 C 3.113281 -0.503906 2.738281 -0.894531 2.53125 -1.46875 C 2.332031 -2.050781 2.234375 -2.882812 2.234375 -3.96875 L 2.234375 -21.34375 L 4.921875 -21.34375 L 4.921875 -4.421875 C 4.921875 -3.609375 5.003906 -3.0625 5.171875 -2.78125 C 5.347656 -2.507812 5.8125 -2.375 6.5625 -2.375 L 7.171875 -2.375 L 7.171875 0 Z M 5.984375 0 "/></g></g></g><g fill="#00357a" fill-opacity="1"><g transform="translate(171.918885, 298.81709)"><g><path d="M 8.984375 0.390625 C 7.328125 0.390625 5.921875 0.0195312 4.765625 -0.71875 C 3.617188 -1.457031 2.738281 -2.445312 2.125 -3.6875 C 1.519531 -4.9375 1.21875 -6.34375 1.21875 -7.90625 C 1.21875 -9.59375 1.554688 -11.046875 2.234375 -12.265625 C 2.921875 -13.492188 3.84375 -14.441406 5 -15.109375 C 6.164062 -15.785156 7.472656 -16.125 8.921875 -16.125 C 10.179688 -16.125 11.289062 -15.875 12.25 -15.375 C 13.21875 -14.875 14.015625 -14.203125 14.640625 -13.359375 C 15.265625 -12.515625 15.722656 -11.554688 16.015625 -10.484375 C 16.304688 -9.421875 16.40625 -8.328125 16.3125 -7.203125 L 4.09375 -7.203125 C 4.132812 -5.878906 4.425781 -4.832031 4.96875 -4.0625 C 5.519531 -3.289062 6.164062 -2.75 6.90625 -2.4375 C 7.65625 -2.132812 8.347656 -1.984375 8.984375 -1.984375 C 9.890625 -1.984375 10.644531 -2.125 11.25 -2.40625 C 11.851562 -2.695312 12.335938 -3.078125 12.703125 -3.546875 L 15.296875 -2.78125 C 14.722656 -1.863281 13.898438 -1.101562 12.828125 -0.5 C 11.765625 0.09375 10.484375 0.390625 8.984375 0.390625 Z M 4.125 -9.34375 L 13.46875 -9.34375 C 13.46875 -10.09375 13.28125 -10.804688 12.90625 -11.484375 C 12.539062 -12.171875 12.019531 -12.734375 11.34375 -13.171875 C 10.675781 -13.609375 9.867188 -13.828125 8.921875 -13.828125 C 8.140625 -13.828125 7.394531 -13.675781 6.6875 -13.375 C 5.976562 -13.070312 5.394531 -12.585938 4.9375 -11.921875 C 4.476562 -11.265625 4.207031 -10.40625 4.125 -9.34375 Z M 4.125 -9.34375 "/></g></g></g><g fill="#00357a" fill-opacity="1"><g transform="translate(189.162647, 298.81709)"><g><path d="M 7.078125 0 C 6.066406 0 5.289062 -0.0976562 4.75 -0.296875 C 4.207031 -0.503906 3.832031 -0.894531 3.625 -1.46875 C 3.425781 -2.050781 3.328125 -2.882812 3.328125 -3.96875 L 3.328125 -13.734375 L 0.640625 -13.734375 L 0.640625 -15.875 L 3.328125 -15.875 L 3.328125 -19.875 L 6.015625 -19.875 L 6.015625 -15.875 L 9.09375 -15.875 L 9.09375 -13.734375 L 6.015625 -13.734375 L 6.015625 -4.421875 C 6.015625 -3.609375 6.09375 -3.0625 6.25 -2.78125 C 6.414062 -2.507812 6.878906 -2.375 7.640625 -2.375 L 9.09375 -2.375 L 9.09375 0 Z M 7.078125 0 "/></g></g></g><g fill="#00357a" fill-opacity="1"><g transform="translate(199.528098, 298.81709)"><g><path d="M 2.234375 0 L 2.234375 -15.875 L 4.21875 -15.875 L 4.921875 -13.46875 C 5.367188 -14.21875 5.984375 -14.847656 6.765625 -15.359375 C 7.546875 -15.867188 8.523438 -16.125 9.703125 -16.125 C 10.910156 -16.125 11.890625 -15.878906 12.640625 -15.390625 C 13.390625 -14.898438 13.929688 -14.21875 14.265625 -13.34375 C 14.910156 -14.320312 15.6875 -15.03125 16.59375 -15.46875 C 17.5 -15.90625 18.503906 -16.125 19.609375 -16.125 C 21.453125 -16.125 22.765625 -15.5625 23.546875 -14.4375 C 24.335938 -13.320312 24.734375 -11.859375 24.734375 -10.046875 L 24.734375 0 L 22.046875 0 L 22.046875 -9.25 C 22.046875 -10.0625 21.960938 -10.8125 21.796875 -11.5 C 21.640625 -12.195312 21.320312 -12.757812 20.84375 -13.1875 C 20.363281 -13.613281 19.632812 -13.828125 18.65625 -13.828125 C 17.5 -13.828125 16.570312 -13.382812 15.875 -12.5 C 15.1875 -11.613281 14.84375 -10.316406 14.84375 -8.609375 L 14.84375 0 L 12.15625 0 L 12.15625 -9.25 C 12.15625 -10.0625 12.078125 -10.8125 11.921875 -11.5 C 11.765625 -12.195312 11.441406 -12.757812 10.953125 -13.1875 C 10.472656 -13.613281 9.742188 -13.828125 8.765625 -13.828125 C 7.617188 -13.828125 6.691406 -13.382812 5.984375 -12.5 C 5.273438 -11.613281 4.921875 -10.316406 4.921875 -8.609375 L 4.921875 0 Z M 2.234375 0 "/></g></g></g><g fill="#00357a" fill-opacity="1"><g transform="translate(226.081548, 298.81709)"><g><path d="M 8.984375 0.390625 C 7.328125 0.390625 5.921875 0.0195312 4.765625 -0.71875 C 3.617188 -1.457031 2.738281 -2.445312 2.125 -3.6875 C 1.519531 -4.9375 1.21875 -6.34375 1.21875 -7.90625 C 1.21875 -9.59375 1.554688 -11.046875 2.234375 -12.265625 C 2.921875 -13.492188 3.84375 -14.441406 5 -15.109375 C 6.164062 -15.785156 7.472656 -16.125 8.921875 -16.125 C 10.179688 -16.125 11.289062 -15.875 12.25 -15.375 C 13.21875 -14.875 14.015625 -14.203125 14.640625 -13.359375 C 15.265625 -12.515625 15.722656 -11.554688 16.015625 -10.484375 C 16.304688 -9.421875 16.40625 -8.328125 16.3125 -7.203125 L 4.09375 -7.203125 C 4.132812 -5.878906 4.425781 -4.832031 4.96875 -4.0625 C 5.519531 -3.289062 6.164062 -2.75 6.90625 -2.4375 C 7.65625 -2.132812 8.347656 -1.984375 8.984375 -1.984375 C 9.890625 -1.984375 10.644531 -2.125 11.25 -2.40625 C 11.851562 -2.695312 12.335938 -3.078125 12.703125 -3.546875 L 15.296875 -2.78125 C 14.722656 -1.863281 13.898438 -1.101562 12.828125 -0.5 C 11.765625 0.09375 10.484375 0.390625 8.984375 0.390625 Z M 4.125 -9.34375 L 13.46875 -9.34375 C 13.46875 -10.09375 13.28125 -10.804688 12.90625 -11.484375 C 12.539062 -12.171875 12.019531 -12.734375 11.34375 -13.171875 C 10.675781 -13.609375 9.867188 -13.828125 8.921875 -13.828125 C 8.140625 -13.828125 7.394531 -13.675781 6.6875 -13.375 C 5.976562 -13.070312 5.394531 -12.585938 4.9375 -11.921875 C 4.476562 -11.265625 4.207031 -10.40625 4.125 -9.34375 Z M 4.125 -9.34375 "/></g></g></g><g fill="#00357a" fill-opacity="1"><g transform="translate(243.32531, 298.81709)"><g><path d="M 8.609375 0.390625 C 7.097656 0.390625 5.785156 0.03125 4.671875 -0.6875 C 3.566406 -1.40625 2.710938 -2.378906 2.109375 -3.609375 C 1.515625 -4.847656 1.21875 -6.269531 1.21875 -7.875 C 1.21875 -9.445312 1.53125 -10.859375 2.15625 -12.109375 C 2.789062 -13.359375 3.679688 -14.335938 4.828125 -15.046875 C 5.984375 -15.765625 7.335938 -16.125 8.890625 -16.125 C 10.328125 -16.125 11.554688 -15.769531 12.578125 -15.0625 C 13.597656 -14.363281 14.363281 -13.523438 14.875 -12.546875 L 12.421875 -11.640625 C 12.078125 -12.285156 11.570312 -12.800781 10.90625 -13.1875 C 10.25 -13.570312 9.515625 -13.765625 8.703125 -13.765625 C 7.910156 -13.765625 7.160156 -13.554688 6.453125 -13.140625 C 5.753906 -12.722656 5.191406 -12.082031 4.765625 -11.21875 C 4.335938 -10.351562 4.125 -9.25 4.125 -7.90625 C 4.125 -6.582031 4.34375 -5.476562 4.78125 -4.59375 C 5.21875 -3.707031 5.78125 -3.050781 6.46875 -2.625 C 7.164062 -2.195312 7.910156 -1.984375 8.703125 -1.984375 C 9.578125 -1.984375 10.335938 -2.179688 10.984375 -2.578125 C 11.640625 -2.972656 12.140625 -3.46875 12.484375 -4.0625 L 14.9375 -3.171875 C 14.34375 -2.140625 13.488281 -1.285156 12.375 -0.609375 C 11.269531 0.0546875 10.015625 0.390625 8.609375 0.390625 Z M 8.609375 0.390625 "/></g></g></g><g fill="#00357a" fill-opacity="1"><g transform="translate(259.32138, 298.81709)"><g><path d="M 4.984375 -18.875 C 4.453125 -18.875 3.988281 -19.070312 3.59375 -19.46875 C 3.207031 -19.863281 3.015625 -20.335938 3.015625 -20.890625 C 3.015625 -21.453125 3.207031 -21.921875 3.59375 -22.296875 C 3.988281 -22.679688 4.453125 -22.875 4.984375 -22.875 C 5.546875 -22.875 6.023438 -22.679688 6.421875 -22.296875 C 6.816406 -21.921875 7.015625 -21.453125 7.015625 -20.890625 C 7.015625 -20.335938 6.816406 -19.863281 6.421875 -19.46875 C 6.023438 -19.070312 5.546875 -18.875 4.984375 -18.875 Z M 3.640625 0 L 3.640625 -13.734375 L 1.4375 -13.734375 L 1.4375 -15.875 L 6.34375 -15.875 L 6.34375 0 Z M 3.640625 0 "/></g></g></g><g fill="#00357a" fill-opacity="1"><g transform="translate(268.215189, 298.81709)"><g><path d="M 5.984375 0 C 4.984375 0 4.207031 -0.0976562 3.65625 -0.296875 C 3.113281 -0.503906 2.738281 -0.894531 2.53125 -1.46875 C 2.332031 -2.050781 2.234375 -2.882812 2.234375 -3.96875 L 2.234375 -21.34375 L 4.921875 -21.34375 L 4.921875 -4.421875 C 4.921875 -3.609375 5.003906 -3.0625 5.171875 -2.78125 C 5.347656 -2.507812 5.8125 -2.375 6.5625 -2.375 L 7.171875 -2.375 L 7.171875 0 Z M 5.984375 0 "/></g></g></g><g fill="#00357a" fill-opacity="1"><g transform="translate(275.253397, 298.81709)"><g><path d="M 4.984375 -18.875 C 4.453125 -18.875 3.988281 -19.070312 3.59375 -19.46875 C 3.207031 -19.863281 3.015625 -20.335938 3.015625 -20.890625 C 3.015625 -21.453125 3.207031 -21.921875 3.59375 -22.296875 C 3.988281 -22.679688 4.453125 -22.875 4.984375 -22.875 C 5.546875 -22.875 6.023438 -22.679688 6.421875 -22.296875 C 6.816406 -21.921875 7.015625 -21.453125 7.015625 -20.890625 C 7.015625 -20.335938 6.816406 -19.863281 6.421875 -19.46875 C 6.023438 -19.070312 5.546875 -18.875 4.984375 -18.875 Z M 3.640625 0 L 3.640625 -13.734375 L 1.4375 -13.734375 L 1.4375 -15.875 L 6.34375 -15.875 L 6.34375 0 Z M 3.640625 0 "/></g></g></g><g fill="#00357a" fill-opacity="1"><g transform="translate(284.147206, 298.81709)"><g><path d="M 2.234375 0 L 2.234375 -21.375 L 4.921875 -21.375 L 4.921875 -8.734375 L 11.328125 -15.875 L 14.5625 -15.875 L 8.578125 -9.3125 L 15.359375 0 L 12.0625 0 L 6.78125 -7.328125 L 4.921875 -5.3125 L 4.921875 0 Z M 2.234375 0 "/></g></g></g></svg>